<?xml version="1.0" standalone="yes"?>
<svg xmlns="http://www.w3.org/2000/svg" width="7801" height="4001">
<path style="fill:#ffffff; stroke:none;" d="M0 0L1 1L0 0z"/>
<path style="fill:#b9b9b9; stroke:none;" d="M0 1778L1 1778L1 1L7801 1C7789.78 -3.70679 7770.21 0 7758 0L7656 0L7305 0L6081 0L1836 0L475 0L124 0L34 0C26.839 0 7.26545 -3.45654 1.6034 1.02783C-2.84595 4.55176 0 22.6196 0 28L0 108L0 437L0 1778z"/>
<path style="fill:#010101; stroke:none;" d="M1 1L1 1778L292 1778L292 1877L192 1877L192 1983L85 1983L85 1883L1 1883L1 2196L83 2196L83 2095L190 2095L190 2196L402 2196L402 1989L558 1989L597 1989C600.88 1989 608.386 1987.59 611.397 1990.6C615.694 1994.9 613 2010.23 613 2016L613 2090L825 2090L825 2192L1141 2192L1141 1989L1352 1989L1352 2090L1455 2090L1455 1882L1381 1882C1375.07 1882 1359.01 1884.8 1354.6 1880.4C1350.2 1875.99 1353 1859.93 1353 1854L1353 1779L1562 1779L1562 2090L1666 2090L1666 1985L1771 1985L1771 1832L1771 1794C1771 1790.12 1769.59 1782.61 1772.6 1779.6C1777.12 1775.09 1793.9 1778 1800 1778L1879 1778L1879 1984L1986 1984L1986 2194L2192 2194L2197 2095L2304 2095L2304 2193L2407 2193L2407 2092L2510 2092L2510 2192L2724 2192L2724 2095L2936 2095L2936 2299L3040 2299L3040 2090L3143 2090C3147.33 2055.73 3146.9 2018.56 3147 1984L3357 1984L3357 2090L3463 2090L3463 2301L3565 2301L3565 2143L3565 2104L3566.6 2089.6L3581 2088L3621 2088L3779 2088L3779 1883L3885 1883L3885 1984L3988 1984L3988 1879L4199 1879L4199 1778L4306 1778L4306 1879L4413 1879L4413 1983L4514 1983L4519 1884L4625 1884L4625 2092L4725 2092C4725.02 2126.61 4726.66 2163.68 4731 2198L4834 2198L4834 2301L4941 2301L4941 2199L5148 2199L5152 2298L5573 2298L5573 2065L5573 2006C5573 2001.07 5570.86 1989.34 5574.6 1985.6C5579.01 1981.2 5595.07 1984 5601 1984L5676 1984L5676 1884L5889 1884L5889 2090L6417 2090L6417 1990L6625 1990L6625 2194L6526 2200L6526 2301L6731 2301L6731 1990L6731 1912C6731 1905.9 6728.09 1889.12 6732.6 1884.6C6737.12 1880.09 6753.9 1883 6760 1883L6840 1883L6840 2092L6943 2092L6943 2298L7051 2298L7051 2223C7051 2217.07 7048.2 2201.01 7052.6 2196.6C7057.01 2192.2 7073.07 2195 7079 2195L7154 2195L7154 1990L7262 1990L7262 2088L7473 2088L7473 1990L7801 1990L7801 1880C7788.22 1879.85 7792 1865.5 7792 1856L7792 1778L7801 1778L7801 1L1 1z"/>
<path style="fill:#777777; stroke:none;" d="M3887 1567L3887 1666L3888 1666L3888 1597L3887 1567z"/>
<path style="fill:#b9b9b9; stroke:none;" d="M3888 1567L3888 1568L3985 1568L3955 1567L3888 1567z"/>
<path style="fill:#777777; stroke:none;" d="M3985 1567L3985 1666L3986 1666L3986 1597L3985 1567z"/>
<path style="fill:#ffffff; stroke:none;" d="M3888 1568L3888 1666L3985 1666L3985 1568L3888 1568z"/>
<path style="fill:#3f3f3f; stroke:none;" d="M3887 1666L3887 1667L3986 1667L3956 1666L3887 1666z"/>
<path style="fill:#777777; stroke:none;" d="M1037 1672L1037 1770L1038 1770L1038 1702L1037 1672z"/>
<path style="fill:#ffffff; stroke:none;" d="M1038 1672L1038 1770L1136 1770L1136 1672L1038 1672z"/>
<path style="fill:#3f3f3f; stroke:none;" d="M1136 1672L1136 1770L1137 1770L1137 1702L1136 1672M2621 1672L2621 1673L2825 1673L2805 1672L2764 1672L2621 1672z"/>
<path style="fill:#b9b9b9; stroke:none;" d="M2621 1673L2621 1744L2622.03 1770.4L2632 1772L2661 1772L2780 1772L2812 1772L2823.97 1770.4L2825 1744L2825 1673L2824 1673L2824 1771L2622 1771L2622 1703L2621 1673z"/>
<path style="fill:#ffffff; stroke:none;" d="M2622 1673L2622 1771L2824 1771L2824 1673L2622 1673z"/>
<path style="fill:#3f3f3f; stroke:none;" d="M4836 1673L4836 1674L4936 1674L4936 1771C4938.7 1764.56 4937 1754.95 4937 1748L4937 1697C4937 1692.19 4939.45 1677.24 4935.4 1674.03C4930.57 1670.2 4915.03 1673 4909 1673L4836 1673z"/>
<path style="fill:#b9b9b9; stroke:none;" d="M4836 1674L4836 1744C4836 1749.85 4833.32 1764.71 4837.03 1769.4C4840.4 1773.65 4856.9 1771 4862 1771L4936 1771L4936 1770L4837 1770L4837 1703L4836 1674z"/>
<path style="fill:#ffffff; stroke:none;" d="M4837 1674L4837 1770L4936 1770L4936 1674L4837 1674z"/>
<path style="fill:#777777; stroke:none;" d="M4836 1770L4837 1771L4836 1770M2621 1771L2622 1772L2621 1771M2824 1771L2825 1772L2824 1771z"/>
<path style="fill:#ffffff; stroke:none;" d="M0 1778L0 1883L30 1882L86 1882L86 1982L191 1982L191 1876L291 1876L291 1778L0 1778z"/>
<path style="fill:#777777; stroke:none;" d="M291 1778L291 1877L292 1877L292 1808L291 1778M616 1778L616 1779L716 1779L685 1778L616 1778z"/>
<path style="fill:#3f3f3f; stroke:none;" d="M823 1778L823 1779L924 1779L924 1879L823 1879C829.678 1881.8 839.784 1880 847 1880L899 1880C904.657 1880 918.85 1882.57 923.397 1878.97C927.15 1876 925 1863.38 925 1859L925 1801C925 1796.33 927.355 1782.16 923.397 1779.03C918.569 1775.2 903.034 1778 897 1778L823 1778M1877 1987L1877 1986L1800 1986C1794.07 1986 1778.01 1988.8 1773.6 1984.4C1770.59 1981.39 1772 1973.88 1772 1970L1772 1932L1772 1779L1879 1779C1872.08 1776.1 1861.48 1778 1854 1778L1797 1778C1791.9 1778 1775.4 1775.35 1772.03 1779.6C1767.65 1785.13 1771 1804.03 1771 1811L1771 1897L1771 1962C1771 1967.44 1768.52 1981.32 1772.6 1985.4C1777.12 1989.91 1793.9 1987 1800 1987L1877 1987M2198 1778L2198 1849C2198 1856.61 2195.23 1870.83 2198.6 1877.68C2200.94 1882.44 2216.42 1880 2221 1880L2279 1880C2283.38 1880 2296 1882.15 2298.97 1878.4C2302.8 1873.57 2300 1858.03 2300 1852L2300 1778L2299 1778L2299 1879L2199 1879L2199 1809L2198 1778z"/>
<path style="fill:#777777; stroke:none;" d="M2199 1778L2199 1779L2299 1779L2268 1778L2199 1778z"/>
<path style="fill:#3f3f3f; stroke:none;" d="M4199 1778L4199 1779L4306 1779L4273 1778L4199 1778M5467 1778L5467 1779L5568 1779L5537 1778L5467 1778z"/>
<path style="fill:#777777; stroke:none;" d="M7476 1778L7476 1779L7572 1779L7543 1778L7476 1778z"/>
<path style="fill:#3f3f3f; stroke:none;" d="M7792 1778L7793 1779L7792 1778z"/>
<path style="fill:#777777; stroke:none;" d="M7792 1879L7793 1879L7793 1779L7801 1779C7788.41 1773.73 7792 1793.93 7792 1801L7792 1879z"/>
<path style="fill:#3f3f3f; stroke:none;" d="M615 1779L615 1849C615 1856.61 612.232 1870.83 615.603 1877.68C617.943 1882.44 633.422 1880 638 1880L696 1880C700.381 1880 712.999 1882.15 715.972 1878.4C719.795 1873.57 717 1858.03 717 1852L717 1779L716 1779L716 1879L616 1879L616 1810L615 1779z"/>
<path style="fill:#ffffff; stroke:none;" d="M616 1779L616 1879L716 1879L716 1779L616 1779z"/>
<path style="fill:#b9b9b9; stroke:none;" d="M823 1779L823 1879L824 1879L824 1810L823 1779z"/>
<path style="fill:#ffffff; stroke:none;" d="M824 1779L824 1879L924 1879L924 1779L824 1779z"/>
<path style="fill:#777777; stroke:none;" d="M1353 1779L1353 1881L1354 1881L1354 1810L1353 1779z"/>
<path style="fill:#b9b9b9; stroke:none;" d="M1354 1779L1354 1780L1562 1780L1542 1779L1500 1779L1354 1779z"/>
<path style="fill:#ffffff; stroke:none;" d="M1772 1779L1772 1931L1772 1970C1772 1973.68 1770.58 1981.23 1773.03 1984.26C1776.26 1988.25 1789.32 1986 1794 1986L1854 1986C1858.75 1986 1874.78 1988.53 1877.26 1983.68C1879.45 1979.39 1878 1971.71 1878 1967L1878 1926L1878 1779L1772 1779z"/>
<path style="fill:#777777; stroke:none;" d="M1878 1779L1878 1984L1879 1984L1879 1840L1879 1799L1878 1779z"/>
<path style="fill:#ffffff; stroke:none;" d="M2199 1779L2199 1879L2299 1879L2299 1779L2199 1779z"/>
<path style="fill:#3f3f3f; stroke:none;" d="M3465 1779L3465 1985L3466 1985L3466 1840L3466 1799L3465 1779z"/>
<path style="fill:#ffffff; stroke:none;" d="M3466 1779L3466 1984L3562 1984L3562 1779L3466 1779z"/>
<path style="fill:#b9b9b9; stroke:none;" d="M3562 1779L3562 1984L3563 1984L3563 1840L3563 1798L3562 1779z"/>
<path style="fill:#ffffff; stroke:none;" d="M4199 1779L4199 1880L3988 1880L3988 1985L3884 1985L3884 1884L3780 1884L3780 2089L3566 2089L3566 2240L3566 2282C3566 2286.82 3564.39 2295.2 3566.6 2299.57C3569.17 2304.62 3586.09 2302 3591 2302L3647 2302C3651.93 2302 3663.66 2299.86 3667.4 2303.6C3669.98 2306.19 3669 2311.69 3669 2315L3669 2345L3669 2464L3669 2496C3669 2499.5 3670.13 2505.66 3667.4 2508.4C3662.99 2512.8 3646.93 2510 3641 2510L3567 2510L3567 2354L3567 2316C3567 2312.69 3568.34 2305.51 3565.4 2303.18C3561.27 2299.91 3550.04 2302 3545 2302L3488 2302C3482.58 2302 3466.38 2304.71 3463.03 2299.68C3460.55 2295.97 3462 2288.29 3462 2284L3462 2243L3462 2091L3383 2091C3377.45 2091 3359.76 2088.13 3356.03 2092.74C3352.21 2097.46 3355 2113.05 3355 2119L3355 2193L3145 2193L3145 2119C3145 2113.05 3147.79 2097.46 3143.97 2092.74C3140.32 2088.23 3123.41 2091 3118 2091L3041 2091L3041 2242L3041 2282C3041 2286.28 3042.45 2293.97 3039.97 2297.68C3036.89 2302.3 3023.88 2300 3019 2300L2958 2300C2952.85 2300 2938.1 2302.57 2935.6 2296.85C2933.52 2292.07 2935 2284.14 2935 2279L2935 2238L2935 2096L2725 2096L2725 2167C2725 2172.6 2727.59 2187.21 2723.4 2191.4C2720.39 2194.41 2712.88 2193 2709 2193L2669 2193L2510 2193L2510 2093L2408 2093L2408 2167C2408 2172.77 2410.69 2188.1 2406.4 2192.4C2401.99 2196.8 2385.93 2194 2380 2194L2303 2194L2303 2096L2198 2096L2195.91 2133L2193 2194L1986 2194L1986 1985L1905 1985C1899.9 1985 1881.34 1982.22 1878.74 1987.32C1875.9 1992.9 1878 2003.82 1878 2010L1878 2064C1878 2069.55 1880.8 2086.56 1875.68 2089.97C1870.92 2093.15 1859.57 2091 1854 2091L1797 2091C1791.97 2091 1774.15 2088.25 1772.32 2094.23C1768.29 2107.36 1772 2127.23 1772 2141L1772 2245L1772 2283C1772 2286.88 1773.41 2294.39 1770.4 2297.4C1767.39 2300.41 1759.88 2299 1756 2299L1717 2299L1562 2299L1562 2227C1562 2219.64 1564.81 2205.04 1561.14 2198.57C1558.21 2193.41 1543.11 2196 1538 2196C1516.96 2196 1496.06 2195 1475 2195C1470.32 2195 1457.26 2192.75 1454.03 2196.74C1450.1 2201.6 1453 2217.87 1453 2224L1453 2300L1247 2300L1247 2195L1399 2195L1437 2195C1441.06 2195 1448.76 2196.46 1452.11 2193.68C1456.8 2189.78 1453.79 2174.61 1454.04 2169C1454.74 2153.04 1454.34 2136.98 1455.04 2121C1455.46 2111.31 1457.81 2100.49 1455 2091L1456 2090L1480 2091L1527 2091L1561 2090L1562 2091C1559.55 2099.28 1561 2109.39 1561 2118L1561 2171C1561 2176.42 1558.29 2192.62 1563.32 2195.97C1569.27 2199.94 1584.95 2197 1592 2197L1667 2197L1667 2118C1667 2112.76 1669.75 2095.48 1665.4 2092.03C1660.43 2088.09 1644.22 2091 1638 2091L1562 2091L1562 1780L1354 1780L1354 1881L1455 1881L1455 2091L1379 2091C1373.07 2091 1357.01 2093.8 1352.6 2089.4C1348.2 2084.99 1351 2068.93 1351 2063L1351 1989L1141 1989L1141 2193L905 2193L846 2193C841.068 2193 829.345 2195.14 825.603 2191.4C821.197 2186.99 824 2170.93 824 2165L824 2091L665 2091L626 2091L612.028 2092.74L611 2119L611 2193L509 2193L509 2119C509 2113.07 506.197 2097.01 510.603 2092.6C514.792 2088.41 529.398 2091 535 2091L588 2091C593.935 2091 604.314 2092.99 609.682 2090.26C614.616 2087.74 612 2070.87 612 2066L612 1990L402 1990L402 2196L190 2196L190 2096L83 2096L83 2196L0 2196L0 2303C18.1162 2298.69 40.3875 2302 59 2302C65.1354 2302 76.1273 2304.13 81.6821 2301.4C86.6796 2298.94 84 2280.92 84 2276C84 2250.98 88.79 2220.32 83 2196L137 2197L190 2196L189 2233L189 2302L111 2302C105.761 2302 88.4753 2299.25 85.0278 2303.6C81.2045 2308.43 84 2323.97 84 2330L84 2404L0 2404L0 4001L7801 4001L7801 1990L7474 1990L7474 2088L7261 2088L7261 1990L7154 1990L7154 2196L7052 2196L7052 2299L6942 2299L6942 2093L6840 2093L6840 1884L6732 1884L6732 2172L6732 2259C6732 2270.75 6728.88 2287.56 6732.32 2298.77C6734.15 2304.75 6751.97 2302 6757 2302L6812 2302C6817.36 2302 6828.09 2299.96 6832.68 2303.03C6837.71 2306.38 6835 2322.58 6835 2328L6835 2404L6733 2404L6733 2330L6731.97 2303.74L6719 2302L6681 2302L6525 2302L6525 2199L6624 2194L6624 1991L6418 1991L6418 2091L6019 2091L5921 2091L5898 2091L5889.03 2092.6L5888 2107L5888 2147L5888 2299L5680 2299L5680 2199L5783 2199L5783 2119C5783 2113.62 5785.85 2095.55 5781.4 2092.03C5776.43 2088.09 5760.22 2091 5754 2091L5678 2091L5678 2016C5678 2007.72 5680.84 1992.92 5676 1986L5783 1986L5783 2062C5783 2068.22 5780.09 2084.43 5784.03 2089.4C5787.08 2093.25 5800.47 2091 5805 2091L5866 2091C5870.68 2091 5885.92 2093.45 5888.4 2088.57C5890.5 2084.41 5889 2076.58 5889 2072L5889 2031L5889 1884L5677 1884L5677 1985L5574 1985L5574 2299L5259 2299L5180 2299C5173.9 2299 5157.12 2301.91 5152.6 2297.4C5148.78 2293.58 5150.28 2277.43 5150.04 2272C5148.99 2248.08 5147 2223.93 5147 2200L4942 2200L4942 2272C4942 2278.84 4944.83 2293.9 4940.97 2299.68C4937.89 2304.3 4924.88 2302 4920 2302L4857 2302C4851.85 2302 4837.25 2304.51 4834.03 2299.68C4830.17 2293.9 4833 2278.84 4833 2272L4833 2199L4730 2199L4726.09 2129L4724 2093L4624 2093L4624 1884L4548 1884C4541.78 1884 4525.57 1881.09 4520.6 1885.03C4516.97 1887.91 4518.06 1905.31 4518 1910C4517.8 1927.45 4517.33 1945.68 4515.29 1963C4514.69 1968.07 4516.75 1976.29 4513.82 1980.68C4510.47 1985.7 4494.42 1983 4489 1983L4413 1983L4413 1880L4333 1880C4327.62 1880 4309.55 1877.15 4306.03 1881.6C4302.09 1886.57 4305 1902.78 4305 1909L4305 1985L4229 1985C4222.48 1985 4206.06 1982.03 4200.89 1986.32C4196.76 1989.75 4199 2002.13 4199 2007L4199 2067C4199 2071.75 4196.47 2087.78 4201.32 2090.26C4207.54 2093.43 4220.09 2091 4227 2091L4290 2091L4515 2091L4515 2300L4618 2300L4618 2407L4466 2407L4427 2407C4423.32 2407 4415.77 2405.58 4412.74 2408.03C4408.44 2411.51 4411 2426.88 4411 2432L4411 2487C4411 2492.36 4413.04 2503.09 4409.97 2507.68C4406.62 2512.71 4390.42 2510 4385 2510L4309 2510L4309 2408L4383 2408L4409.26 2406.97L4411 2393L4411 2355L4411 2196L4253 2196L4214 2196C4210.27 2196 4203.03 2194.63 4200.32 2197.89C4196.14 2202.92 4199 2218.67 4199 2225L4199 2299L4095 2299L4095 2225C4095 2218.67 4097.86 2202.92 4093.68 2197.89C4089.81 2193.23 4073.62 2196 4068 2196L3991 2196L3991 2405L3913 2405C3906.9 2405 3890.12 2407.91 3885.6 2403.4C3881.31 2399.1 3884 2383.77 3884 2378L3884 2305L3781 2305L3781 2199L3881 2194L3881 2093L3989 2093L3989 1984C3998.17 1990.42 4021.86 1986 4033 1986L4151 1986L4186 1986C4189.5 1986 4195.66 1987.13 4198.4 1984.4C4202.69 1980.1 4200 1964.77 4200 1959L4200 1907C4200 1898.39 4201.45 1888.28 4199 1880L4200 1879C4208.28 1881.45 4218.39 1880 4227 1880L4280 1880C4285.27 1880 4301.41 1882.66 4304.97 1878.26C4308.79 1873.54 4306 1857.95 4306 1852L4306 1779L4199 1779M5467 1779L5467 1879L5567 1879L5567 1779L5467 1779z"/>
<path style="fill:#b9b9b9; stroke:none;" d="M5567 1779L5567 1879L5568 1879L5568 1810L5567 1779z"/>
<path style="fill:#3f3f3f; stroke:none;" d="M6522 1779L6522 1849C6522 1854.85 6519.32 1869.71 6523.03 1874.4C6526.4 1878.65 6542.9 1876 6548 1876L6623 1876L6623 1875L6523 1875L6523 1808L6522 1779z"/>
<path style="fill:#ffffff; stroke:none;" d="M6523 1779L6523 1875L6623 1875L6623 1779L6523 1779M7476 1779L7476 1878L7572 1878L7572 1779L7476 1779M7793 1779L7793 1879L7801 1879L7801 1779L7793 1779z"/>
<path style="fill:#b9b9b9; stroke:none;" d="M191 1876L191 1877L291 1877L260 1876L191 1876z"/>
<path style="fill:#3f3f3f; stroke:none;" d="M191 1877L191 1983L192 1983L192 1909L191 1877z"/>
<path style="fill:#b9b9b9; stroke:none;" d="M7476 1878L7476 1879L7572 1879L7543 1878L7476 1878M3988 1879L3988 1880L4199 1880L4179 1879L4136 1879L3988 1879z"/>
<path style="fill:#777777; stroke:none;" d="M4200 1879L4201 1880L4200 1879M4304.33 1879.67L4304.67 1880.33L4304.33 1879.67z"/>
<path style="fill:#b9b9b9; stroke:none;" d="M4305 1879L4305 1880L4413 1880L4380 1879L4305 1879z"/>
<path style="fill:#3f3f3f; stroke:none;" d="M5467 1879L5467 1880L5568 1880L5537 1879L5467 1879M7793 1879L7793 1880L7801 1880L7793 1879M4199.67 1880.33L4200.33 1880.67L4199.67 1880.33z"/>
<path style="fill:#b9b9b9; stroke:none;" d="M4201 1880L4201 1881L4304 1881L4272 1880L4201 1880z"/>
<path style="fill:#010101; stroke:none;" d="M4305 1880L4306 1881L4305 1880z"/>
<path style="fill:#777777; stroke:none;" d="M718 1881L719 1882L718 1881z"/>
<path style="fill:#b9b9b9; stroke:none;" d="M718 1981L719 1981L719 1882L821 1882C814.322 1879.2 804.216 1881 797 1881L743 1881C738.044 1881 722.321 1878.45 719.028 1882.6C715.204 1887.43 718 1902.97 718 1909L718 1981z"/>
<path style="fill:#777777; stroke:none;" d="M821 1881L821 1981L718 1981L718 1982L793 1982C799.222 1982 815.43 1984.91 820.397 1980.97C824.554 1977.68 822 1961.96 822 1957L822 1905C822 1897.78 823.802 1887.68 821 1881z"/>
<path style="fill:#3f3f3f; stroke:none;" d="M1354 1881L1354 1882L1455 1882L1424 1881L1354 1881z"/>
<path style="fill:#777777; stroke:none;" d="M2301 1881L2302 1882L2301 1881z"/>
<path style="fill:#b9b9b9; stroke:none;" d="M2401 1982L2401 1981L2302 1981L2302 1882L2401 1882C2394.56 1879.3 2384.95 1881 2378 1881L2326 1881C2320.53 1881 2307.01 1878.54 2302.6 1882.03C2298.65 1885.16 2301 1899.33 2301 1904L2301 1961C2301 1965.38 2298.85 1978 2302.6 1980.97C2307.43 1984.8 2322.97 1982 2329 1982L2401 1982z"/>
<path style="fill:#777777; stroke:none;" d="M2401 1881L2401 1982L2402 1982L2402 1912L2401 1881M4200 1881L4200 1985L4201 1985L4201 1913L4200 1881z"/>
<path style="fill:#010101; stroke:none;" d="M4201 1881L4201 1985L4304 1985L4304 1881L4201 1881z"/>
<path style="fill:#3f3f3f; stroke:none;" d="M4304 1881L4304 1985L4305 1985L4305 1913L4304 1881M5361 1881L5361 1985L5362 1985L5362 1913L5361 1881z"/>
<path style="fill:#b9b9b9; stroke:none;" d="M5362 1881L5362 1882L5465 1882L5433 1881L5362 1881M1 1882L1 1883L86 1883L60 1882L1 1882z"/>
<path style="fill:#ffffff; stroke:none;" d="M719 1882L719 1981L821 1981L821 1882L719 1882M2302 1882L2302 1981L2401 1981L2401 1882L2302 1882z"/>
<path style="fill:#3f3f3f; stroke:none;" d="M5048 1882L5049 1883L5048 1882z"/>
<path style="fill:#777777; stroke:none;" d="M5048 2088L5049 2088L5049 1883L5146 1883C5139.56 1880.3 5129.95 1882 5123 1882L5072 1882C5067.19 1882 5052.24 1879.54 5049.03 1883.6C5046.58 1886.7 5048 1894.27 5048 1898L5048 1937L5048 2088z"/>
<path style="fill:#3f3f3f; stroke:none;" d="M5146 1882L5146 2088L5048 2088L5048 2089L5119 2089C5125.03 2089 5140.57 2091.8 5145.4 2087.97C5148.22 2085.74 5147 2079.15 5147 2076L5147 2040L5147 1929C5147 1915.75 5151.11 1894.17 5146 1882z"/>
<path style="fill:#ffffff; stroke:none;" d="M5362 1882L5362 1984L5465 1984L5465 1882L5362 1882z"/>
<path style="fill:#3f3f3f; stroke:none;" d="M6208 1882L6208 1883L6306 1883L6306 1982C6308.8 1975.32 6307 1965.22 6307 1958L6307 1906C6307 1901.19 6309.46 1886.24 6305.4 1883.03C6300.57 1879.2 6285.03 1882 6279 1882L6208 1882z"/>
<path style="fill:#b9b9b9; stroke:none;" d="M0 1883L0 2196L1 2196L1 1975L1 1911L0 1883z"/>
<path style="fill:#3f3f3f; stroke:none;" d="M85 1883L85 1983L86 1983L86 1914L85 1883z"/>
<path style="fill:#777777; stroke:none;" d="M3779 1883L3779 1884L3884 1884L3884 1984C3886.8 1977.32 3885 1967.22 3885 1960L3885 1908C3885 1903.04 3887.55 1887.32 3883.4 1884.03C3878.43 1880.09 3862.22 1883 3856 1883L3779 1883z"/>
<path style="fill:#3f3f3f; stroke:none;" d="M3884 1883L3885 1884L3884 1883M4731 1987L4732 1987L4732 1884L4935 1884C4922.83 1878.89 4901.25 1883 4888 1883L4779 1883L4744 1883C4740.85 1883 4734.26 1881.78 4732.03 1884.6C4728.09 1889.57 4731 1905.78 4731 1912L4731 1987z"/>
<path style="fill:#ffffff; stroke:none;" d="M5049 1883L5049 2088L5146 2088L5146 1883L5049 1883z"/>
<path style="fill:#b9b9b9; stroke:none;" d="M6208 1883L6208 1956C6208 1961.1 6205.35 1977.6 6209.6 1980.97C6214.29 1984.68 6229.15 1982 6235 1982L6306 1982L6306 1981L6209 1981L6209 1913L6208 1883z"/>
<path style="fill:#ffffff; stroke:none;" d="M6209 1883L6209 1981L6306 1981L6306 1883L6209 1883z"/>
<path style="fill:#3f3f3f; stroke:none;" d="M6732 1883L6732 1884L6840 1884L6807 1883L6732 1883z"/>
<path style="fill:#777777; stroke:none;" d="M2512 1884L2512 1885L2613 1885L2582 1884L2512 1884z"/>
<path style="fill:#3f3f3f; stroke:none;" d="M2725 1884L2725 1885L3145 1885C3135.21 1880.89 3118.63 1884 3108 1884L3022 1884L2725 1884z"/>
<path style="fill:#b9b9b9; stroke:none;" d="M3779 1884L3779 2089L3780 2089L3780 1945L3780 1904L3779 1884M4519 1884L4520 1885L4519 1884z"/>
<path style="fill:#3f3f3f; stroke:none;" d="M4624 1884L4624 2040L4624 2079L4625.6 2091.97L4652 2093L4725 2093L4725 2092L4625 2092L4625 1946L4625 1904L4624 1884z"/>
<path style="fill:#ffffff; stroke:none;" d="M4732 1884L4732 1987L4832 1987L4832 2086L4935 2086L4935 1884L4732 1884z"/>
<path style="fill:#777777; stroke:none;" d="M4935 1884L4935 2087L4936 2087L4936 1944L4936 1903L4935 1884M5676 1884L5676 1984L5677 1984L5677 1915L5676 1884z"/>
<path style="fill:#3f3f3f; stroke:none;" d="M5997 1884L5997 1885L6095 1885L6095 1983C6097.7 1976.56 6096 1966.95 6096 1960L6096 1908C6096 1903.19 6098.46 1888.24 6094.4 1885.03C6089.57 1881.2 6074.03 1884 6068 1884L5997 1884M6731 1884L6731 2301L6732 2301L6732 2006L6732 1921C6732 1910.37 6735.11 1893.79 6731 1884z"/>
<path style="fill:#ffffff; stroke:none;" d="M2512 1885L2512 2090L2612 2090L2612 1885L2512 1885z"/>
<path style="fill:#b9b9b9; stroke:none;" d="M2612 1885L2612 2090L2613 2090L2613 1946L2613 1905L2612 1885z"/>
<path style="fill:#777777; stroke:none;" d="M2725 1885L2725 1982L2726 1982L2726 1915L2725 1885z"/>
<path style="fill:#ffffff; stroke:none;" d="M2726 1885L2726 1982L3145 1982L3145 1885L2726 1885z"/>
<path style="fill:#777777; stroke:none;" d="M3145 1885L3145 1982L3146 1982L3146 1915L3145 1885z"/>
<path style="fill:#ffffff; stroke:none;" d="M5997 1885L5997 1983L6095 1983L6095 1885L5997 1885z"/>
<path style="fill:#3f3f3f; stroke:none;" d="M4518 1890L4518 1895L4519 1895L4518 1890z"/>
<path style="fill:#777777; stroke:none;" d="M4518 1895L4518 1899L4519 1899L4518 1895z"/>
<path style="fill:#b9b9b9; stroke:none;" d="M4518 1899L4518 1904L4519 1904L4518 1899z"/>
<path style="fill:#3f3f3f; stroke:none;" d="M4517 1909L4517 1914L4518 1914L4517 1909z"/>
<path style="fill:#777777; stroke:none;" d="M4517 1914L4517 1919L4518 1919L4517 1914z"/>
<path style="fill:#b9b9b9; stroke:none;" d="M4517 1919L4517 1923L4518 1923L4517 1919z"/>
<path style="fill:#3f3f3f; stroke:none;" d="M4516 1928L4516 1933L4517 1933L4516 1928z"/>
<path style="fill:#777777; stroke:none;" d="M4516 1933L4516 1938L4517 1938L4516 1933z"/>
<path style="fill:#b9b9b9; stroke:none;" d="M4516 1938L4516 1942L4517 1942L4516 1938z"/>
<path style="fill:#3f3f3f; stroke:none;" d="M4515 1948L4515 1952L4516 1952L4515 1948z"/>
<path style="fill:#777777; stroke:none;" d="M4515 1952L4515 1957L4516 1957L4515 1952z"/>
<path style="fill:#b9b9b9; stroke:none;" d="M4515 1957L4515 1962L4516 1962L4515 1957z"/>
<path style="fill:#3f3f3f; stroke:none;" d="M4514 1967L4514 1971L4515 1971L4514 1967z"/>
<path style="fill:#777777; stroke:none;" d="M4514 1971L4514 1976L4515 1976L4514 1971z"/>
<path style="fill:#b9b9b9; stroke:none;" d="M4514 1976L4514 1981L4515 1981L4514 1976z"/>
<path style="fill:#3f3f3f; stroke:none;" d="M821 1981L822 1982L821 1981z"/>
<path style="fill:#777777; stroke:none;" d="M2301 1981L2302 1982L2301 1981M6208 1981L6209 1982L6208 1981z"/>
<path style="fill:#b9b9b9; stroke:none;" d="M86 1982L86 1983L191 1983L159 1982L86 1982z"/>
<path style="fill:#3f3f3f; stroke:none;" d="M2726 1982L2726 1983L3145 1983C3135.21 1978.89 3118.63 1982 3108 1982L3022 1982L2726 1982z"/>
<path style="fill:#b9b9b9; stroke:none;" d="M1877 1984L1877 2090L1878 2090L1878 2011L1877 1984z"/>
<path style="fill:#3f3f3f; stroke:none;" d="M1879 1984L1879 1985L1986 1985L1953 1984L1879 1984z"/>
<path style="fill:#777777; stroke:none;" d="M3147 1984L3148 1985L3147 1984z"/>
<path style="fill:#b9b9b9; stroke:none;" d="M3148 1984L3148 1985L3356 1985L3336 1984L3294 1984L3148 1984z"/>
<path style="fill:#3f3f3f; stroke:none;" d="M3356 1984L3356 2090L3357 2090L3357 2016L3356 1984z"/>
<path style="fill:#777777; stroke:none;" d="M3466 1984L3466 1985L3563 1985L3533 1984L3466 1984z"/>
<path style="fill:#b9b9b9; stroke:none;" d="M3884 1984L3885 1985L3884 1984z"/>
<path style="fill:#3f3f3f; stroke:none;" d="M3885 1984L3885 1985L3988 1985L3956 1984L3885 1984z"/>
<path style="fill:#b9b9b9; stroke:none;" d="M3989 1984L3990 1985L3989 1984M4199 1984L4198 1986L4199 1984z"/>
<path style="fill:#777777; stroke:none;" d="M5362 1984L5362 1985L5465 1985L5434 1984L5362 1984z"/>
<path style="fill:#3f3f3f; stroke:none;" d="M5574 1984L5574 1985L5676 1985L5645 1984L5574 1984z"/>
<path style="fill:#b9b9b9; stroke:none;" d="M5676 1984L5677 1985L5676 1984M1666 1985L1666 2091L1667 2091L1667 2017L1666 1985z"/>
<path style="fill:#ffffff; stroke:none;" d="M1667 1985L1667 2062L1667 2090L1690 2091L1752 2091L1773 2090L1773 2083L1773 2063L1773 2007L1772 1985L1667 1985z"/>
<path style="fill:#b9b9b9; stroke:none;" d="M1773 1985L1774 1986L1773 1985z"/>
<path style="fill:#010101; stroke:none;" d="M1877 1985L1878 1986L1877 1985z"/>
<path style="fill:#ffffff; stroke:none;" d="M3147 1985L3145 2063L3145.03 2089.26L3156 2091L3186 2091L3310 2091L3343 2091L3354.97 2089.26L3356 2062L3356 1985L3147 1985z"/>
<path style="fill:#777777; stroke:none;" d="M3988 1985L3988 1987L3990 1985L3988 1985z"/>
<path style="fill:#010101; stroke:none;" d="M4199 1985L4200 1986L4199 1985z"/>
<path style="fill:#3f3f3f; stroke:none;" d="M4200 1985L4201 1986L4200 1985z"/>
<path style="fill:#777777; stroke:none;" d="M5573 1985L5573 2298L5574 2298L5574 2077L5574 2013L5573 1985z"/>
<path style="fill:#3f3f3f; stroke:none;" d="M5677 1985L5677 1986L5712 1987L5782 1987L5782 1986L5713 1986L5677 1985z"/>
<path style="fill:#b9b9b9; stroke:none;" d="M5678 1985L5679 1986L5678 1985M1771 1986L1772 1987L1771 1986z"/>
<path style="fill:#777777; stroke:none;" d="M1772 1986L1773 1987L1772 1986M1877 1986L1878 1987L1877 1986z"/>
<path style="fill:#3f3f3f; stroke:none;" d="M3989 1986L3989 2093L3882 2093L3882 2094L3962 2094C3967.38 2094 3985.45 2096.85 3988.97 2092.4C3993.02 2087.29 3990 2070.41 3990 2064L3990 1987L4199 1987L4179 1986L4137 1986L3989 1986z"/>
<path style="fill:#777777; stroke:none;" d="M4199.67 1986.33L4200.33 1986.67L4199.67 1986.33M5259 1986L5259 1987L5360 1987L5329 1986L5259 1986z"/>
<path style="fill:#b9b9b9; stroke:none;" d="M5676 1986L5677 1987L5676 1986z"/>
<path style="fill:#777777; stroke:none;" d="M5677 1986L5678 1987L5677 1986z"/>
<path style="fill:#b9b9b9; stroke:none;" d="M5782 1986L5782 2090L5783 2090L5783 2018L5782 1986z"/>
<path style="fill:#010101; stroke:none;" d="M1773 1987L1773 2090L1877 2090L1877 1987L1773 1987M3990 1987L3990 2065C3990 2071.1 3992.91 2087.88 3988.4 2092.4C3983.88 2096.91 3967.1 2094 3961 2094L3882 2094L3882 2194C3859.62 2196.83 3835.57 2197.96 3813 2198C3806.7 2198.01 3788.47 2196.17 3783.6 2200.03C3779.25 2203.48 3782 2220.76 3782 2226L3782 2305L3885 2305L3885 2404L3990 2404L3990 2196L4093 2196L4093 2090L4199 2090L4199 1987L3990 1987z"/>
<path style="fill:#3f3f3f; stroke:none;" d="M4831 1987L4831 2087L4832 2087L4832 2018L4831 1987z"/>
<path style="fill:#ffffff; stroke:none;" d="M5259 1987L5259 2086L5359 2086L5359 1987L5259 1987z"/>
<path style="fill:#b9b9b9; stroke:none;" d="M5359 1987L5359 2086L5259 2086L5259 2087L5332 2087C5338.03 2087 5353.57 2089.8 5358.4 2085.97C5362.46 2082.76 5360 2067.81 5360 2063L5360 2011C5360 2003.78 5361.8 1993.68 5359 1987z"/>
<path style="fill:#010101; stroke:none;" d="M5678 1987L5678 2090L5782 2090L5782 1987L5678 1987z"/>
<path style="fill:#3f3f3f; stroke:none;" d="M402 1989L402 1990L612 1990L592 1989L550 1989L402 1989z"/>
<path style="fill:#b9b9b9; stroke:none;" d="M1351 1989L1351 2090L1352 2090L1352 2020L1351 1989z"/>
<path style="fill:#3f3f3f; stroke:none;" d="M612 1990L612 2090L613 2090L613 2021L612 1990M6417 1990L6417 2090L6418 2090L6418 2021L6417 1990z"/>
<path style="fill:#b9b9b9; stroke:none;" d="M6418 1990L6418 1991L6624 1991L6604 1990L6563 1990L6418 1990z"/>
<path style="fill:#3f3f3f; stroke:none;" d="M6624 1990L6624 2194L6625 2194L6625 2050L6625 2009L6624 1990z"/>
<path style="fill:#777777; stroke:none;" d="M6944 1990L6944 2090L6945 2090L6945 2021L6944 1990z"/>
<path style="fill:#ffffff; stroke:none;" d="M6945 1990L6945 2090L7045 2090L7045 1990L6945 1990z"/>
<path style="fill:#3f3f3f; stroke:none;" d="M7045 1990L7045 2090L7046 2090L7046 2021L7045 1990z"/>
<path style="fill:#b9b9b9; stroke:none;" d="M7261 1990L7261 2088L7262 2088L7262 2020L7261 1990M7473 1990L7473 2088L7474 2088L7474 2020L7473 1990z"/>
<path style="fill:#3f3f3f; stroke:none;" d="M3146 1992L3146 2000L3147 2000L3146 1992z"/>
<path style="fill:#777777; stroke:none;" d="M3146 2000L3146 2008L3147 2008L3146 2000z"/>
<path style="fill:#b9b9b9; stroke:none;" d="M3146 2008L3146 2016L3147 2016L3146 2008z"/>
<path style="fill:#3f3f3f; stroke:none;" d="M3145 2023L3145 2031L3146 2031L3145 2023z"/>
<path style="fill:#777777; stroke:none;" d="M3145 2031L3145 2039L3146 2039L3145 2031z"/>
<path style="fill:#b9b9b9; stroke:none;" d="M3145 2039L3145 2047L3146 2047L3145 2039z"/>
<path style="fill:#3f3f3f; stroke:none;" d="M3144 2055L3144 2062L3145 2062L3144 2055z"/>
<path style="fill:#777777; stroke:none;" d="M3144 2062L3144 2070L3145 2070L3144 2062z"/>
<path style="fill:#b9b9b9; stroke:none;" d="M3144 2070L3144 2078L3145 2078L3144 2070z"/>
<path style="fill:#3f3f3f; stroke:none;" d="M3143 2086L3143 2090L3144 2090L3143 2086z"/>
<path style="fill:#b9b9b9; stroke:none;" d="M4832 2086L4832 2087L4935 2087L4904 2086L4832 2086z"/>
<path style="fill:#777777; stroke:none;" d="M5359 2086L5360 2087L5359 2086z"/>
<path style="fill:#3f3f3f; stroke:none;" d="M3566 2088L3566 2089L3779 2089L3759 2088L3716 2088L3566 2088M3565 2089L3565 2301L3566 2301L3566 2152L3566 2109L3565 2089z"/>
<path style="fill:#b9b9b9; stroke:none;" d="M510 2091L510 2092L824 2091L824 2192C826.802 2185.32 825 2175.22 825 2168L825 2115C825 2110.04 827.554 2094.32 823.397 2091.03C819.275 2087.76 807.088 2090 802 2090L742 2090C664.607 2090 587.374 2091 510 2091z"/>
<path style="fill:#777777; stroke:none;" d="M824 2090L825 2091L824 2090z"/>
<path style="fill:#b9b9b9; stroke:none;" d="M1352 2090L1352 2091L1455 2091L1423 2090L1352 2090z"/>
<path style="fill:#777777; stroke:none;" d="M1456 2090L1457 2091L1456 2090M1560 2090L1561 2091L1560 2090M1562 2090L1562 2091L1666 2091L1634 2090L1562 2090M1667 2090L1668 2091L1667 2090z"/>
<path style="fill:#3f3f3f; stroke:none;" d="M1771 2090L1771 2092L1773 2090L1771 2090z"/>
<path style="fill:#777777; stroke:none;" d="M1773 2090L1773 2091L1877 2091L1845 2090L1773 2090z"/>
<path style="fill:#3f3f3f; stroke:none;" d="M2512 2090L2512 2091L2613 2091L2582 2090L2512 2090z"/>
<path style="fill:#777777; stroke:none;" d="M3040 2090L3041 2091L3040 2090z"/>
<path style="fill:#b9b9b9; stroke:none;" d="M3041 2090L3041 2091L3354 2092L3325 2091L3261 2091L3041 2090z"/>
<path style="fill:#777777; stroke:none;" d="M3354.33 2090.67L3354.67 2091.33L3354.33 2090.67z"/>
<path style="fill:#b9b9b9; stroke:none;" d="M3355 2090L3355 2091L3462 2091L3462 2301C3467.21 2288.59 3463 2266.52 3463 2253L3463 2140L3463 2104C3463 2100.68 3464.35 2093.37 3461.4 2091.03C3456.29 2086.98 3439.41 2090 3433 2090L3355 2090z"/>
<path style="fill:#777777; stroke:none;" d="M3462 2090L3463 2091L3462 2090z"/>
<path style="fill:#3f3f3f; stroke:none;" d="M4093 2090L4094 2091L4093 2090z"/>
<path style="fill:#777777; stroke:none;" d="M4093 2196L4094 2196L4094 2091L4199 2091C4192.08 2088.1 4181.48 2090 4174 2090L4119 2090C4113.9 2090 4097.4 2087.35 4094.03 2091.6C4090.09 2096.57 4093 2112.78 4093 2119L4093 2196z"/>
<path style="fill:#3f3f3f; stroke:none;" d="M4199 2090L4201 2092L4201 2090L4199 2090z"/>
<path style="fill:#777777; stroke:none;" d="M5678 2090L5678 2091L5782 2091L5750 2090L5678 2090z"/>
<path style="fill:#3f3f3f; stroke:none;" d="M5782 2090L5784 2092L5784 2090L5782 2090z"/>
<path style="fill:#777777; stroke:none;" d="M5887.33 2090.67L5887.67 2091.33L5887.33 2090.67z"/>
<path style="fill:#b9b9b9; stroke:none;" d="M5888 2090L5888 2091L6418 2091C6406.07 2085.99 6384.99 2090 6372 2090L6263 2090L5888 2090z"/>
<path style="fill:#3f3f3f; stroke:none;" d="M6945 2090L6945 2091L7045 2091L7014 2090L6945 2090z"/>
<path style="fill:#777777; stroke:none;" d="M610 2091L611 2092L610 2091z"/>
<path style="fill:#010101; stroke:none;" d="M611 2091L612 2092L611 2091z"/>
<path style="fill:#3f3f3f; stroke:none;" d="M1455.67 2091.33L1456.33 2091.67L1455.67 2091.33z"/>
<path style="fill:#b9b9b9; stroke:none;" d="M1457 2091L1457 2092L1560 2092L1528 2091L1457 2091z"/>
<path style="fill:#3f3f3f; stroke:none;" d="M1560.67 2091.33L1561.33 2091.67L1560.67 2091.33M1666.67 2091.33L1667.33 2091.67L1666.67 2091.33z"/>
<path style="fill:#b9b9b9; stroke:none;" d="M1668 2091L1668 2092L1771 2092L1739 2091L1668 2091z"/>
<path style="fill:#010101; stroke:none;" d="M1772 2091L1773 2092L1772 2091z"/>
<path style="fill:#b9b9b9; stroke:none;" d="M1773 2091L1774 2092L1773 2091M3040 2091L3040 2299L3041 2299L3041 2153L3041 2111L3040 2091z"/>
<path style="fill:#010101; stroke:none;" d="M3144 2091L3145 2126L3145 2192L3354 2192L3354 2092L3213 2092C3191.34 2092 3165.07 2096.02 3144 2091z"/>
<path style="fill:#777777; stroke:none;" d="M3145 2091L3146 2092L3145 2091z"/>
<path style="fill:#010101; stroke:none;" d="M3355 2091L3356 2092L3355 2091z"/>
<path style="fill:#ffffff; stroke:none;" d="M4094 2091L4094 2166C4094 2173.05 4091.05 2188.73 4095.03 2194.68C4097.32 2198.12 4103.48 2197 4107 2197L4139 2197L4181 2197C4185.5 2197 4193.79 2198.57 4197.68 2195.97C4202.51 2192.75 4200 2178.15 4200 2173L4200 2113C4200 2108.48 4202.25 2095.23 4198.4 2092.18C4193.27 2088.12 4177.37 2091 4171 2091L4094 2091z"/>
<path style="fill:#b9b9b9; stroke:none;" d="M4198 2091L4199 2092L4198 2091z"/>
<path style="fill:#010101; stroke:none;" d="M4199 2091L4200 2092L4199 2091z"/>
<path style="fill:#b9b9b9; stroke:none;" d="M4201 2091L4201 2092L4515 2092L4487 2091L4423 2091L4201 2091z"/>
<path style="fill:#010101; stroke:none;" d="M5782 2091L5783 2092L5782 2091z"/>
<path style="fill:#b9b9b9; stroke:none;" d="M5784 2091L5784 2092L5887 2092L5856 2091L5784 2091z"/>
<path style="fill:#010101; stroke:none;" d="M5888 2091L5889 2092L5888 2091z"/>
<path style="fill:#777777; stroke:none;" d="M509 2092L509 2192L510 2192L510 2123L509 2092z"/>
<path style="fill:#010101; stroke:none;" d="M510 2092L510 2192L611 2192L611 2092L510 2092z"/>
<path style="fill:#777777; stroke:none;" d="M1456 2092L1457 2093L1456 2092z"/>
<path style="fill:#010101; stroke:none;" d="M1457 2092L1455 2194L1560 2196L1560 2092L1457 2092z"/>
<path style="fill:#777777; stroke:none;" d="M1560 2092L1560 2196L1561 2196L1561 2124L1560 2092M1667 2092L1667 2197L1668 2197L1668 2124L1667 2092z"/>
<path style="fill:#010101; stroke:none;" d="M1668 2092L1668 2169C1668 2175.1 1670.91 2191.88 1666.4 2196.4C1661.88 2200.91 1645.1 2198 1639 2198L1562 2198L1562 2298L1771 2298L1771 2092L1668 2092z"/>
<path style="fill:#777777; stroke:none;" d="M1771 2092L1771 2298L1772 2298L1772 2153L1772 2112L1771 2092M2407 2092L2408 2093L2407 2092z"/>
<path style="fill:#b9b9b9; stroke:none;" d="M2408 2092L2408 2093L2510 2093L2479 2092L2408 2092z"/>
<path style="fill:#3f3f3f; stroke:none;" d="M3354 2092L3354 2192L3145 2192L3145 2193L3299 2193L3339 2193C3342.73 2193 3350.3 2194.42 3353.4 2191.97C3357.55 2188.68 3355 2172.96 3355 2168L3355 2116C3355 2108.78 3356.8 2098.68 3354 2092z"/>
<path style="fill:#777777; stroke:none;" d="M4200 2092L4200 2196L4201 2196L4201 2124L4200 2092z"/>
<path style="fill:#010101; stroke:none;" d="M4201 2092L4201 2196L4412 2196L4412 2406L4617 2406L4617 2300L4515 2300L4515 2092L4201 2092z"/>
<path style="fill:#777777; stroke:none;" d="M4624 2092L4625 2093L4624 2092M5783 2092L5783 2199L5784 2199L5784 2125L5783 2092z"/>
<path style="fill:#010101; stroke:none;" d="M5784 2092L5784 2171C5784 2177.1 5786.91 2193.88 5782.4 2198.4C5777.99 2202.8 5761.93 2200 5756 2200L5681 2200L5681 2298L5887 2298L5887 2092L5784 2092z"/>
<path style="fill:#3f3f3f; stroke:none;" d="M5887 2092L5887 2298L5888 2298L5888 2153L5888 2111L5887 2092z"/>
<path style="fill:#b9b9b9; stroke:none;" d="M6840 2092L6840 2093L6942 2093L6942 2299C6947.11 2286.83 6943 2265.25 6943 2252L6943 2141L6943 2105C6943 2101.85 6944.22 2095.26 6941.4 2093.03C6936.43 2089.09 6920.22 2092 6914 2092L6840 2092z"/>
<path style="fill:#777777; stroke:none;" d="M6942 2092L6943 2093L6942 2092z"/>
<path style="fill:#3f3f3f; stroke:none;" d="M1456 2093L1456 2105L1457 2105L1456 2093z"/>
<path style="fill:#b9b9b9; stroke:none;" d="M2407 2093L2407 2193L2408 2193L2408 2124L2407 2093M3881 2093L3882 2094L3881 2093M4724 2093L4724 2096L4725 2096L4724 2093M7685 2093L7686 2094L7685 2093z"/>
<path style="fill:#777777; stroke:none;" d="M7686 2093L7686 2094L7784 2094L7754 2093L7686 2093M3881 2094L3881 2194L3882 2194L3882 2125L3881 2094z"/>
<path style="fill:#3f3f3f; stroke:none;" d="M7685 2094L7685 2193L7686 2193L7686 2124L7685 2094z"/>
<path style="fill:#010101; stroke:none;" d="M7686 2094L7686 2193L7784 2193L7784 2094L7686 2094z"/>
<path style="fill:#b9b9b9; stroke:none;" d="M7784 2094L7784 2193L7785 2193L7785 2124L7784 2094M83 2095L83 2096L190 2096L157 2095L83 2095z"/>
<path style="fill:#777777; stroke:none;" d="M2197 2095L2198 2096L2197 2095z"/>
<path style="fill:#b9b9b9; stroke:none;" d="M2198 2095L2198 2096L2303 2096L2271 2095L2198 2095z"/>
<path style="fill:#3f3f3f; stroke:none;" d="M2303 2095L2303 2193L2304 2193L2304 2125L2303 2095z"/>
<path style="fill:#777777; stroke:none;" d="M2724 2095L2724 2192L2725 2192L2725 2125L2724 2095z"/>
<path style="fill:#b9b9b9; stroke:none;" d="M2725 2095L2725 2096L2935 2096L2935 2299C2940.11 2286.83 2936 2265.25 2936 2252L2936 2143L2936 2108C2936 2104.85 2937.22 2098.26 2934.4 2096.03C2931.3 2093.58 2923.73 2095 2920 2095L2880 2095L2725 2095z"/>
<path style="fill:#777777; stroke:none;" d="M2935 2095L2936 2096L2935 2095z"/>
<path style="fill:#b9b9b9; stroke:none;" d="M2197 2096L2197 2099L2198 2099L2197 2096z"/>
<path style="fill:#3f3f3f; stroke:none;" d="M4725 2101L4725 2105L4726 2105L4725 2101M2196 2104L2196 2109L2197 2109L2196 2104z"/>
<path style="fill:#777777; stroke:none;" d="M4725 2105L4725 2110L4726 2110L4725 2105M2196 2109L2196 2113L2197 2113L2196 2109z"/>
<path style="fill:#b9b9b9; stroke:none;" d="M4725 2110L4725 2114L4726 2114L4725 2110M2196 2113L2196 2118L2197 2118L2196 2113M1455 2116L1455 2128L1456 2128L1455 2116z"/>
<path style="fill:#3f3f3f; stroke:none;" d="M4726 2119L4726 2124L4727 2124L4726 2119M2195 2123L2195 2128L2196 2128L2195 2123z"/>
<path style="fill:#777777; stroke:none;" d="M4726 2124L4726 2128L4727 2128L4726 2124M1455 2128L1455 2140L1456 2140L1455 2128M2195 2128L2195 2132L2196 2132L2195 2128z"/>
<path style="fill:#b9b9b9; stroke:none;" d="M4726 2128L4726 2133L4727 2133L4726 2128M2195 2132L2195 2137L2196 2137L2195 2132z"/>
<path style="fill:#3f3f3f; stroke:none;" d="M4727 2138L4727 2142L4728 2142L4727 2138M1455 2140L1455 2152L1456 2152L1455 2140M2194 2142L2194 2146L2195 2146L2194 2142z"/>
<path style="fill:#777777; stroke:none;" d="M4727 2142L4727 2147L4728 2147L4727 2142M2194 2146L2194 2151L2195 2151L2194 2146z"/>
<path style="fill:#b9b9b9; stroke:none;" d="M4727 2147L4727 2152L4728 2152L4727 2147M2194 2151L2194 2156L2195 2156L2194 2151z"/>
<path style="fill:#3f3f3f; stroke:none;" d="M4728 2156L4728 2161L4729 2161L4728 2156M2193 2161L2193 2165L2194 2165L2193 2161z"/>
<path style="fill:#777777; stroke:none;" d="M4728 2161L4728 2166L4729 2166L4728 2161z"/>
<path style="fill:#b9b9b9; stroke:none;" d="M1454 2164L1454 2176L1455 2176L1454 2164z"/>
<path style="fill:#777777; stroke:none;" d="M2193 2165L2193 2170L2194 2170L2193 2165z"/>
<path style="fill:#b9b9b9; stroke:none;" d="M4728 2166L4728 2170L4729 2170L4728 2166M2193 2170L2193 2175L2194 2175L2193 2170z"/>
<path style="fill:#3f3f3f; stroke:none;" d="M4729 2175L4729 2180L4730 2180L4729 2175z"/>
<path style="fill:#777777; stroke:none;" d="M1454 2176L1454 2189L1455 2189L1454 2176z"/>
<path style="fill:#3f3f3f; stroke:none;" d="M2192 2180L2192 2184L2193 2184L2192 2180z"/>
<path style="fill:#777777; stroke:none;" d="M4729 2180L4729 2184L4730 2184L4729 2180M2192 2184L2192 2189L2193 2189L2192 2184z"/>
<path style="fill:#b9b9b9; stroke:none;" d="M4729 2184L4729 2189L4730 2189L4729 2184z"/>
<path style="fill:#3f3f3f; stroke:none;" d="M1454 2189L1454 2194L1455 2194L1454 2189z"/>
<path style="fill:#b9b9b9; stroke:none;" d="M2192 2189L2192 2194L2193 2194L2192 2189M509 2192L510 2193L509 2192z"/>
<path style="fill:#3f3f3f; stroke:none;" d="M510 2192L510 2193L611 2193L580 2192L510 2192z"/>
<path style="fill:#b9b9b9; stroke:none;" d="M825 2192L825 2193L1141 2193L1112 2192L1048 2192L825 2192M2510 2192L2510 2193L2724 2193L2704 2192L2661 2192L2510 2192z"/>
<path style="fill:#777777; stroke:none;" d="M3354 2192L3355 2193L3354 2192z"/>
<path style="fill:#b9b9b9; stroke:none;" d="M1452.67 2193.33L1453.33 2193.67L1452.67 2193.33M2303 2193L2304 2194L2303 2193z"/>
<path style="fill:#777777; stroke:none;" d="M2304 2193L2304 2194L2407 2194L2375 2193L2304 2193z"/>
<path style="fill:#b9b9b9; stroke:none;" d="M7685 2193L7686 2194L7685 2193z"/>
<path style="fill:#777777; stroke:none;" d="M7686 2193L7686 2194L7784 2194L7754 2193L7686 2193M1452 2194C1432.57 2199.74 1405.31 2195 1385 2195L1385 2196L1429 2196L1453 2195L1452 2194z"/>
<path style="fill:#010101; stroke:none;" d="M1453 2194L1454 2195L1453 2194z"/>
<path style="fill:#777777; stroke:none;" d="M1454.33 2194.67L1454.67 2195.33L1454.33 2194.67z"/>
<path style="fill:#b9b9b9; stroke:none;" d="M1455 2194L1455 2195L1468 2195L1455 2194z"/>
<path style="fill:#777777; stroke:none;" d="M1468 2194L1468 2195L1482 2195L1468 2194z"/>
<path style="fill:#3f3f3f; stroke:none;" d="M1482 2194L1482 2195L1496 2195L1482 2194z"/>
<path style="fill:#b9b9b9; stroke:none;" d="M3865 2194L3865 2195L3870 2195L3865 2194z"/>
<path style="fill:#777777; stroke:none;" d="M3870 2194L3870 2195L3875 2195L3870 2194z"/>
<path style="fill:#3f3f3f; stroke:none;" d="M3875 2194L3875 2195L3879 2195L3875 2194M4730 2194L4730 2198L4731 2198L4730 2194z"/>
<path style="fill:#b9b9b9; stroke:none;" d="M6607 2194L6607 2195L6612 2195L6607 2194z"/>
<path style="fill:#777777; stroke:none;" d="M6612 2194L6612 2195L6616 2195L6612 2194z"/>
<path style="fill:#3f3f3f; stroke:none;" d="M6616 2194L6616 2195L6621 2195L6616 2194M1247 2195L1247 2196L1385 2196C1374.02 2191.39 1354.94 2195 1343 2195L1247 2195M1452 2195L1452 2299L1453 2299L1453 2231L1454 2195L1452 2195z"/>
<path style="fill:#b9b9b9; stroke:none;" d="M1510 2195L1510 2196L1525 2196L1510 2195z"/>
<path style="fill:#777777; stroke:none;" d="M1525 2195L1525 2196L1540 2196L1525 2195z"/>
<path style="fill:#3f3f3f; stroke:none;" d="M1540 2195L1540 2196L1554 2196L1540 2195z"/>
<path style="fill:#b9b9b9; stroke:none;" d="M1561 2195L1563 2197L1561 2195M3846 2195L3846 2196L3851 2196L3846 2195z"/>
<path style="fill:#777777; stroke:none;" d="M3851 2195L3851 2196L3855 2196L3851 2195z"/>
<path style="fill:#3f3f3f; stroke:none;" d="M3855 2195L3855 2196L3860 2196L3855 2195z"/>
<path style="fill:#b9b9b9; stroke:none;" d="M4094 2195L4096 2197L4094 2195M4199 2195L4198 2197L4199 2195M6589 2195L6589 2196L6594 2196L6589 2195z"/>
<path style="fill:#777777; stroke:none;" d="M6594 2195L6594 2196L6598 2196L6594 2195z"/>
<path style="fill:#3f3f3f; stroke:none;" d="M6598 2195L6598 2196L6602 2196L6598 2195M7052 2195L7052 2196L7154 2196L7123 2195L7052 2195z"/>
<path style="fill:#b9b9b9; stroke:none;" d="M7155 2195L7156 2196L7155 2195M83 2196L84 2197L83 2196z"/>
<path style="fill:#3f3f3f; stroke:none;" d="M84 2196C88.25 2200.86 104.713 2198 111 2198L188 2198L188 2301L189 2301L189 2197L120 2197L84 2196z"/>
<path style="fill:#777777; stroke:none;" d="M188 2196L190 2198L188 2196z"/>
<path style="fill:#b9b9b9; stroke:none;" d="M189 2196L190 2197L189 2196z"/>
<path style="fill:#010101; stroke:none;" d="M1247 2196L1247 2299L1452 2299L1452 2196L1247 2196z"/>
<path style="fill:#3f3f3f; stroke:none;" d="M1560 2196L1561 2197L1560 2196z"/>
<path style="fill:#010101; stroke:none;" d="M1561 2196L1562 2197L1561 2196z"/>
<path style="fill:#b9b9b9; stroke:none;" d="M3827 2196L3827 2197L3831 2197L3827 2196z"/>
<path style="fill:#777777; stroke:none;" d="M3831 2196L3831 2197L3836 2197L3831 2196z"/>
<path style="fill:#3f3f3f; stroke:none;" d="M3836 2196L3836 2197L3841 2197L3836 2196z"/>
<path style="fill:#777777; stroke:none;" d="M3990 2196L3990 2404L3885 2404L3885 2405L3962 2405C3968.22 2405 3984.43 2407.91 3989.4 2403.97C3992.35 2401.63 3991 2394.32 3991 2391L3991 2355L3991 2244C3991 2230.48 3995.21 2208.41 3990 2196z"/>
<path style="fill:#3f3f3f; stroke:none;" d="M4093 2196L4094 2197L4093 2196z"/>
<path style="fill:#010101; stroke:none;" d="M4094 2196L4095 2197L4094 2196M4199 2196L4200 2197L4199 2196z"/>
<path style="fill:#3f3f3f; stroke:none;" d="M4200 2196L4201 2197L4200 2196z"/>
<path style="fill:#b9b9b9; stroke:none;" d="M4411 2196L4411 2406L4412 2406L4412 2258L4412 2216L4411 2196M6571 2196L6571 2197L6575 2197L6571 2196z"/>
<path style="fill:#777777; stroke:none;" d="M6575 2196L6575 2197L6580 2197L6575 2196z"/>
<path style="fill:#3f3f3f; stroke:none;" d="M6580 2196L6580 2197L6584 2197L6580 2196z"/>
<path style="fill:#777777; stroke:none;" d="M7051 2196L7051 2298L7052 2298L7052 2227L7051 2196M7154 2196L7154 2198L7156 2196L7154 2196M83 2197L84 2198L83 2197M1560.67 2197.33L1561.33 2197.67L1560.67 2197.33z"/>
<path style="fill:#3f3f3f; stroke:none;" d="M1562 2197L1562 2198L1667 2198L1635 2197L1562 2197z"/>
<path style="fill:#b9b9b9; stroke:none;" d="M3807 2197L3807 2198L3812 2198L3807 2197z"/>
<path style="fill:#777777; stroke:none;" d="M3812 2197L3812 2198L3817 2198L3812 2197z"/>
<path style="fill:#3f3f3f; stroke:none;" d="M3817 2197L3817 2198L3822 2198L3817 2197z"/>
<path style="fill:#777777; stroke:none;" d="M4093.67 2197.33L4094.33 2197.67L4093.67 2197.33z"/>
<path style="fill:#3f3f3f; stroke:none;" d="M4095 2197L4095 2198L4199 2198L4167 2197L4095 2197z"/>
<path style="fill:#777777; stroke:none;" d="M4199.67 2197.33L4200.33 2197.67L4199.67 2197.33z"/>
<path style="fill:#b9b9b9; stroke:none;" d="M6552 2197L6552 2198L6557 2198L6552 2197z"/>
<path style="fill:#777777; stroke:none;" d="M6557 2197L6557 2198L6562 2198L6557 2197z"/>
<path style="fill:#3f3f3f; stroke:none;" d="M6562 2197L6562 2198L6566 2198L6562 2197M7155 2197L7155 2404L7156 2404L7156 2198L7256 2198L7225 2197L7155 2197z"/>
<path style="fill:#b9b9b9; stroke:none;" d="M7256 2197L7257 2198L7256 2197z"/>
<path style="fill:#777777; stroke:none;" d="M84 2198L84 2301L85 2301L85 2230L84 2198z"/>
<path style="fill:#010101; stroke:none;" d="M85 2198L85 2301L188 2301L188 2198L85 2198z"/>
<path style="fill:#b9b9b9; stroke:none;" d="M3788 2198L3788 2199L3793 2199L3788 2198z"/>
<path style="fill:#777777; stroke:none;" d="M3793 2198L3793 2199L3798 2199L3793 2198z"/>
<path style="fill:#3f3f3f; stroke:none;" d="M3798 2198L3798 2199L3802 2199L3798 2198z"/>
<path style="fill:#010101; stroke:none;" d="M4095 2198L4095 2298L4199 2298L4199 2198L4095 2198z"/>
<path style="fill:#b9b9b9; stroke:none;" d="M4730 2198L4731 2199L4730 2198z"/>
<path style="fill:#777777; stroke:none;" d="M4731 2198L4731 2199L4834 2199L4803 2198L4731 2198z"/>
<path style="fill:#b9b9b9; stroke:none;" d="M6534 2198L6534 2199L6539 2199L6534 2198z"/>
<path style="fill:#777777; stroke:none;" d="M6539 2198L6539 2199L6543 2199L6539 2198z"/>
<path style="fill:#3f3f3f; stroke:none;" d="M6543 2198L6543 2199L6548 2199L6543 2198z"/>
<path style="fill:#010101; stroke:none;" d="M7156 2198L7156 2404L7256 2404L7256 2198L7156 2198z"/>
<path style="fill:#777777; stroke:none;" d="M7256 2198L7256 2404L7257 2404L7257 2259L7257 2218L7256 2198M3781 2199L3782 2200L3781 2199z"/>
<path style="fill:#3f3f3f; stroke:none;" d="M3782 2199L3783 2200L3782 2199z"/>
<path style="fill:#b9b9b9; stroke:none;" d="M4833 2199L4833 2301L4834 2301L4834 2230L4833 2199z"/>
<path style="fill:#777777; stroke:none;" d="M4941 2199L4941 2200L5147 2200L5127 2199L5086 2199L4941 2199z"/>
<path style="fill:#3f3f3f; stroke:none;" d="M5147 2199L5147 2203L5148 2203L5147 2199z"/>
<path style="fill:#777777; stroke:none;" d="M5680 2199L5681 2200L5680 2199z"/>
<path style="fill:#3f3f3f; stroke:none;" d="M5681 2199L5681 2200L5783 2200L5752 2199L5681 2199z"/>
<path style="fill:#b9b9b9; stroke:none;" d="M6525 2199L6526 2200L6525 2199z"/>
<path style="fill:#3f3f3f; stroke:none;" d="M6526 2199L6526 2200L6529 2200L6526 2199z"/>
<path style="fill:#b9b9b9; stroke:none;" d="M7474 2199L7474 2298L7475 2298L7475 2229L7474 2199z"/>
<path style="fill:#777777; stroke:none;" d="M7475 2199L7475 2200L7574 2200L7544 2199L7475 2199z"/>
<path style="fill:#b9b9b9; stroke:none;" d="M7574 2199L7575 2200L7574 2199z"/>
<path style="fill:#3f3f3f; stroke:none;" d="M3781 2200L3781 2305L3782 2305L3782 2232L3781 2200z"/>
<path style="fill:#b9b9b9; stroke:none;" d="M4941 2200L4941 2301L4942 2301L4942 2231L4941 2200z"/>
<path style="fill:#3f3f3f; stroke:none;" d="M5680 2200L5680 2298L5681 2298L5681 2230L5680 2200z"/>
<path style="fill:#777777; stroke:none;" d="M6525 2200L6525 2274L6526.03 2300.4L6539 2302L6577 2302L6731 2302L6731 2301L6526 2301L6526 2231L6525 2200z"/>
<path style="fill:#010101; stroke:none;" d="M7475 2200L7475 2298L7574 2298L7574 2200L7475 2200z"/>
<path style="fill:#3f3f3f; stroke:none;" d="M7574 2200L7574 2298L7575 2298L7575 2230L7574 2200z"/>
<path style="fill:#010101; stroke:none;" d="M6208 2201L6208 2301L6313 2301L6313 2404L6412 2404L6412 2201L6208 2201z"/>
<path style="fill:#b9b9b9; stroke:none;" d="M6412 2201L6412 2405L6413 2405L6413 2261L6413 2220L6412 2201z"/>
<path style="fill:#777777; stroke:none;" d="M5147 2203L5147 2208L5148 2208L5147 2203z"/>
<path style="fill:#b9b9b9; stroke:none;" d="M5147 2208L5147 2213L5148 2213L5147 2208z"/>
<path style="fill:#3f3f3f; stroke:none;" d="M5148 2219L5148 2224L5149 2224L5148 2219z"/>
<path style="fill:#777777; stroke:none;" d="M5148 2224L5148 2229L5149 2229L5148 2224z"/>
<path style="fill:#b9b9b9; stroke:none;" d="M5148 2229L5148 2234L5149 2234L5148 2229z"/>
<path style="fill:#3f3f3f; stroke:none;" d="M5149 2240L5149 2245L5150 2245L5149 2240z"/>
<path style="fill:#777777; stroke:none;" d="M5149 2245L5149 2250L5150 2250L5149 2245z"/>
<path style="fill:#b9b9b9; stroke:none;" d="M5149 2250L5149 2255L5150 2255L5149 2250z"/>
<path style="fill:#3f3f3f; stroke:none;" d="M5150 2261L5150 2266L5151 2266L5150 2261z"/>
<path style="fill:#777777; stroke:none;" d="M5150 2266L5150 2271L5151 2271L5150 2266z"/>
<path style="fill:#b9b9b9; stroke:none;" d="M5150 2271L5150 2277L5151 2277L5150 2271z"/>
<path style="fill:#3f3f3f; stroke:none;" d="M5151 2282L5151 2287L5152 2287L5151 2282z"/>
<path style="fill:#777777; stroke:none;" d="M5151 2287L5151 2292L5152 2292L5151 2287z"/>
<path style="fill:#b9b9b9; stroke:none;" d="M5151 2292L5151 2298L5152 2298L5151 2292M1562 2298L1562 2299L1771 2299L1751 2298L1709 2298L1562 2298M4095 2298L4095 2299L4199 2299L4167 2298L4095 2298z"/>
<path style="fill:#3f3f3f; stroke:none;" d="M5152 2298L5152 2299L5573 2299C5563.21 2294.89 5546.63 2298 5536 2298L5450 2298L5152 2298z"/>
<path style="fill:#b9b9b9; stroke:none;" d="M5573 2298L5574 2299L5573 2298M5680 2298L5681 2299L5680 2298z"/>
<path style="fill:#777777; stroke:none;" d="M5681 2298L5681 2299L5887 2299L5867 2298L5826 2298L5681 2298z"/>
<path style="fill:#b9b9b9; stroke:none;" d="M5887 2298L5888 2299L5887 2298z"/>
<path style="fill:#3f3f3f; stroke:none;" d="M6943 2298L6943 2299L7051 2299L7018 2298L6943 2298z"/>
<path style="fill:#b9b9b9; stroke:none;" d="M7051 2298L7052 2299L7051 2298z"/>
<path style="fill:#777777; stroke:none;" d="M7475 2298L7475 2299L7574 2299L7544 2298L7475 2298z"/>
<path style="fill:#b9b9b9; stroke:none;" d="M7574 2298L7575 2299L7574 2298M1247 2299L1247 2300L1453 2300L1434 2299L1392 2299L1247 2299M2936 2299L2936 2300L3040 2300L3008 2299L2936 2299z"/>
<path style="fill:#777777; stroke:none;" d="M4617 2300L4617 2406L4618 2406L4618 2332L4617 2300z"/>
<path style="fill:#010101; stroke:none;" d="M83 2301C77.5665 2305.12 66.6258 2303 60 2303L1 2303L1 2403L83 2403L83 2333L83 2301z"/>
<path style="fill:#3f3f3f; stroke:none;" d="M84.3333 2301.67L84.6667 2302.33L84.3333 2301.67z"/>
<path style="fill:#b9b9b9; stroke:none;" d="M85 2301L85 2302L189 2302L157 2301L85 2301M3463 2301L3463 2302L3668 2303L3668 2509C3673.11 2496.83 3669 2475.25 3669 2462L3669 2351L3669 2315C3669 2311.85 3670.22 2305.26 3667.4 2303.03C3664.3 2300.58 3656.73 2302 3653 2302L3613 2302C3563.01 2302 3513.04 2301 3463 2301z"/>
<path style="fill:#777777; stroke:none;" d="M4832 2301L4833 2302L4832 2301z"/>
<path style="fill:#b9b9b9; stroke:none;" d="M4834 2301L4834 2302L4941 2302L4908 2301L4834 2301z"/>
<path style="fill:#777777; stroke:none;" d="M6208 2301L6208 2302L6313 2302L6281 2301L6208 2301z"/>
<path style="fill:#b9b9b9; stroke:none;" d="M6525 2301L6526 2302L6525 2301M6731 2303L6834 2303L6834 2404C6836.8 2397.32 6835 2387.22 6835 2380L6835 2328C6835 2322.34 6837.57 2308.15 6833.97 2303.6C6830.76 2299.54 6815.81 2302 6811 2302L6751 2302C6746.25 2302 6734.16 2299.68 6731 2303M1 2302L1 2303L83 2303L58 2302L1 2302z"/>
<path style="fill:#010101; stroke:none;" d="M3566 2302C3570.95 2322.78 3567 2348.64 3567 2370L3567 2509L3668 2509L3668 2303L3601 2303L3566 2302z"/>
<path style="fill:#777777; stroke:none;" d="M3567 2302L3568 2303L3567 2302z"/>
<path style="fill:#b9b9b9; stroke:none;" d="M4731 2302L4731 2303L4832 2303L4801 2302L4731 2302z"/>
<path style="fill:#3f3f3f; stroke:none;" d="M4832.67 2302.33L4833.33 2302.67L4832.67 2302.33z"/>
<path style="fill:#010101; stroke:none;" d="M6732 2302L6733 2303L6732 2302z"/>
<path style="fill:#777777; stroke:none;" d="M6733 2302L6734 2303L6733 2302z"/>
<path style="fill:#b9b9b9; stroke:none;" d="M0 2303L0 2404L1 2404L1 2334L0 2303M83 2303L83 2404L84 2404L84 2334L83 2303z"/>
<path style="fill:#3f3f3f; stroke:none;" d="M4731 2303L4731 2378C4731 2383.1 4728.35 2399.6 4732.6 2402.97C4737.43 2406.8 4752.97 2404 4759 2404L4832 2404L4832 2403L4732 2403L4732 2334L4731 2303z"/>
<path style="fill:#010101; stroke:none;" d="M4732 2303L4732 2403L4832 2403L4832 2303L4732 2303z"/>
<path style="fill:#777777; stroke:none;" d="M4832 2303L4832 2403L4833 2403L4833 2334L4832 2303z"/>
<path style="fill:#3f3f3f; stroke:none;" d="M6733 2303L6733 2404L6734 2404L6734 2334L6733 2303z"/>
<path style="fill:#010101; stroke:none;" d="M6734 2303L6734 2404L6834 2404L6834 2303L6734 2303z"/>
<path style="fill:#777777; stroke:none;" d="M932 2305L932 2306L1031 2306L1001 2305L932 2305z"/>
<path style="fill:#b9b9b9; stroke:none;" d="M3884 2305L3884 2404L3885 2404L3885 2335L3884 2305M931 2306L931 2509L932 2509L932 2366L932 2325L931 2306z"/>
<path style="fill:#010101; stroke:none;" d="M932 2306L932 2509L1031 2509L1031 2306L932 2306z"/>
<path style="fill:#777777; stroke:none;" d="M2090 2306L2090 2307L2296 2307L2277 2306L2235 2306L2090 2306z"/>
<path style="fill:#b9b9b9; stroke:none;" d="M2089 2307L2089 2377L2090.03 2402.4L2103 2404L2141 2404L2296 2404L2296 2403L2090 2403L2090 2337L2089 2307z"/>
<path style="fill:#010101; stroke:none;" d="M2090 2307L2090 2403L2296 2403L2296 2307L2090 2307z"/>
<path style="fill:#3f3f3f; stroke:none;" d="M1 2403L1 2404L83 2404L57 2403L1 2403z"/>
<path style="fill:#777777; stroke:none;" d="M4731 2403L4732 2404L4731 2403z"/>
<path style="fill:#b9b9b9; stroke:none;" d="M4832 2403L4833 2404L4832 2403M3990 2404L3991 2405L3990 2404z"/>
<path style="fill:#3f3f3f; stroke:none;" d="M6313 2404L6313 2405L6412 2405L6382 2404L6313 2404z"/>
<path style="fill:#777777; stroke:none;" d="M4410.67 2406.33L4411.33 2406.67L4410.67 2406.33z"/>
<path style="fill:#3f3f3f; stroke:none;" d="M4412 2406L4412 2407L4617 2407L4597 2406L4556 2406L4412 2406z"/>
<path style="fill:#b9b9b9; stroke:none;" d="M4617 2406L4618 2407L4617 2406z"/>
<path style="fill:#010101; stroke:none;" d="M4410.67 2407.33L4411.33 2407.67L4410.67 2407.33z"/>
<path style="fill:#3f3f3f; stroke:none;" d="M4309 2408L4309 2409L4410 2409L4379 2408L4309 2408z"/>
<path style="fill:#777777; stroke:none;" d="M4410.67 2408.33L4411.33 2408.67L4410.67 2408.33z"/>
<path style="fill:#010101; stroke:none;" d="M4309 2409L4309 2509L4410 2509L4410 2409L4309 2409z"/>
<path style="fill:#b9b9b9; stroke:none;" d="M4410 2409L4410 2509L4411 2509L4411 2440L4410 2409M3042 2410L3043 2411L3042 2410z"/>
<path style="fill:#777777; stroke:none;" d="M3043 2410L3043 2411L3142 2411L3112 2410L3043 2410z"/>
<path style="fill:#3f3f3f; stroke:none;" d="M3042 2411L3042 2509L3043 2509L3043 2441L3042 2411z"/>
<path style="fill:#010101; stroke:none;" d="M3043 2411L3043 2509L3142 2509L3142 2411L3043 2411z"/>
<path style="fill:#b9b9b9; stroke:none;" d="M3142 2411L3142 2509L3143 2509L3143 2441L3142 2411z"/>
<path style="fill:#777777; stroke:none;" d="M7368 2412L7368 2484C7368 2489.85 7365.32 2504.71 7369.03 2509.4C7372.4 2513.65 7388.9 2511 7394 2511L7467 2511L7467 2510L7369 2510L7369 2442L7368 2412z"/>
<path style="fill:#010101; stroke:none;" d="M7369 2412L7369 2510L7467 2510L7467 2412L7369 2412z"/>
<path style="fill:#3f3f3f; stroke:none;" d="M7467 2412L7467 2510L7468 2510L7468 2442L7467 2412z"/>
<path style="fill:#b9b9b9; stroke:none;" d="M3042 2509L3043 2510L3042 2509z"/>
<path style="fill:#777777; stroke:none;" d="M3043 2509L3043 2510L3142 2510L3112 2509L3043 2509M3567 2509L3567 2510L3668 2510L3637 2509L3567 2509z"/>
<path style="fill:#b9b9b9; stroke:none;" d="M4309 2509L4309 2510L4410 2510L4379 2509L4309 2509M7368 2510L7369 2511L7368 2510M7467 2510L7468 2511L7467 2510z"/>
<path style="fill:#777777; stroke:none;" d="M7687 2515L7687 2516L7784 2516L7754 2515L7687 2515z"/>
<path style="fill:#b9b9b9; stroke:none;" d="M7784 2515L7785 2516L7784 2515M1249.6 2517.03C1246.78 2519.26 1248 2525.85 1248 2529L1248 2562L1248 2601C1248 2604.73 1246.58 2612.3 1249.03 2615.4C1252.16 2619.35 1266.33 2617 1271 2617L1326 2617C1330.9 2617 1342.42 2619.12 1346.4 2615.97C1349.22 2613.74 1348 2607.15 1348 2604L1348 2571L1348 2532C1348 2528.27 1349.42 2520.7 1346.97 2517.6C1343.84 2513.65 1329.67 2516 1325 2516L1270 2516C1265.1 2516 1253.58 2513.88 1249.6 2517.03M2726 2516L2726 2517L2825 2517L2795 2516L2726 2516M3254 2516L3254 2517L3353 2517L3323 2516L3254 2516M5364 2516L5365 2517L5364 2516z"/>
<path style="fill:#777777; stroke:none;" d="M5365.6 2517.03C5362.78 2519.26 5364 2525.85 5364 2529L5364 2562L5364 2601C5364 2604.73 5362.58 2612.3 5365.03 2615.4C5368.16 2619.35 5382.33 2617 5387 2617L5442 2617C5446.9 2617 5458.42 2619.12 5462.4 2615.97C5465.22 2613.74 5464 2607.15 5464 2604L5464 2571L5464 2532C5464 2528.27 5465.42 2520.7 5462.97 2517.6C5459.84 2513.65 5445.67 2516 5441 2516L5386 2516C5381.1 2516 5369.58 2513.88 5365.6 2517.03z"/>
<path style="fill:#b9b9b9; stroke:none;" d="M5463 2516L5464 2517L5463 2516M7686 2516L7686 2616L7687 2616L7687 2547L7686 2516z"/>
<path style="fill:#010101; stroke:none;" d="M7687 2516L7687 2616L7784 2616L7784 2516L7687 2516z"/>
<path style="fill:#3f3f3f; stroke:none;" d="M7784 2516L7784 2616L7785 2616L7785 2547L7784 2516z"/>
<path style="fill:#010101; stroke:none;" d="M1249 2517L1249 2616L1347 2616L1347 2517L1249 2517z"/>
<path style="fill:#b9b9b9; stroke:none;" d="M1459.6 2518.03C1456.78 2520.26 1458 2526.85 1458 2530L1458 2563L1458 2600C1458 2603.73 1456.58 2611.3 1459.03 2614.4C1462.16 2618.35 1476.33 2616 1481 2616L1538 2616C1542.9 2616 1554.42 2618.12 1558.4 2614.97C1561.22 2612.74 1560 2606.15 1560 2603L1560 2570L1560 2533C1560 2529.27 1561.42 2521.7 1558.97 2518.6C1555.84 2514.65 1541.67 2517 1537 2517L1480 2517C1475.1 2517 1463.58 2514.88 1459.6 2518.03z"/>
<path style="fill:#3f3f3f; stroke:none;" d="M2726 2517L2726 2616L2727 2616L2727 2547L2726 2517z"/>
<path style="fill:#010101; stroke:none;" d="M2727 2517L2727 2616L2824 2616L2824 2517L2727 2517z"/>
<path style="fill:#3f3f3f; stroke:none;" d="M2824 2517L2824 2616L2825 2616L2825 2547L2824 2517z"/>
<path style="fill:#010101; stroke:none;" d="M3254 2517L3254 2616L3352 2616L3352 2517L3254 2517z"/>
<path style="fill:#777777; stroke:none;" d="M3352 2517L3352 2616L3353 2616L3353 2547L3352 2517z"/>
<path style="fill:#b9b9b9; stroke:none;" d="M3887 2517L3888 2518L3887 2517z"/>
<path style="fill:#3f3f3f; stroke:none;" d="M3888 2517L3888 2518L3985 2518L3955 2517L3888 2517z"/>
<path style="fill:#b9b9b9; stroke:none;" d="M3985 2517L3985 2618L3986 2618L3986 2548L3985 2517z"/>
<path style="fill:#010101; stroke:none;" d="M5365 2517L5365 2616L5463 2616L5463 2517L5365 2517M1459 2518L1459 2615L1559 2615L1559 2518L1459 2518z"/>
<path style="fill:#777777; stroke:none;" d="M3887 2518L3887 2618L3888 2618L3888 2549L3887 2518z"/>
<path style="fill:#010101; stroke:none;" d="M3888 2518L3888 2618L3985 2618L3985 2518L3888 2518z"/>
<path style="fill:#b9b9b9; stroke:none;" d="M2726 2616L2726 2617L2825 2617L2795 2616L2726 2616M3254 2616L3254 2617L3352 2617L3322 2616L3254 2616M5364 2616L5365 2617L5364 2616M5463 2616L5464 2617L5463 2616M403 2720L404 2720L404 2620L501 2620C494.564 2617.3 484.951 2619 478 2619L427 2619C422.187 2619 407.242 2616.54 404.028 2620.6C400.205 2625.43 403 2640.97 403 2647L403 2720z"/>
<path style="fill:#010101; stroke:none;" d="M404 2620L404 2720L501 2720L501 2620L404 2620z"/>
<path style="fill:#777777; stroke:none;" d="M501 2620L501 2720L404 2720L404 2721L475 2721C480.846 2721 495.71 2723.68 500.397 2719.97C504.554 2716.68 502 2700.96 502 2696L502 2644C502 2636.78 503.802 2626.68 501 2620z"/>
<path style="fill:#b9b9b9; stroke:none;" d="M501 2720L502 2721L501 2720M7053 2726L7054 2727L7053 2726z"/>
<path style="fill:#777777; stroke:none;" d="M7053 2827L7054 2827L7054 2727L7151 2727L7151 2827L7152 2803L7152 2752L7150.97 2727.6L7132 2726L7075 2726L7054.03 2727.6L7053 2754L7053 2827z"/>
<path style="fill:#b9b9b9; stroke:none;" d="M7151 2726L7152 2727L7151 2726z"/>
<path style="fill:#010101; stroke:none;" d="M7054 2727L7054 2827L7151 2827L7151 2727L7054 2727z"/>
<path style="fill:#3f3f3f; stroke:none;" d="M7264 2729L7264 2825L7265 2825L7265 2758L7264 2729z"/>
<path style="fill:#010101; stroke:none;" d="M7265 2729L7265 2825L7365 2825L7365 2729L7265 2729z"/>
<path style="fill:#b9b9b9; stroke:none;" d="M7264 2825L7265 2826L7264 2825z"/>
<path style="fill:#777777; stroke:none;" d="M7265 2825L7265 2826L7365 2826L7334 2825L7265 2825z"/>
<path style="fill:#b9b9b9; stroke:none;" d="M7054 2827L7054 2828L7151 2828L7121 2827L7054 2827M3887 2833L3887 2834L3986 2834L3986 2932C3988.7 2925.56 3987 2915.95 3987 2909L3987 2857C3987 2852.19 3989.46 2837.24 3985.4 2834.03C3980.57 2830.2 3965.03 2833 3959 2833L3887 2833z"/>
<path style="fill:#777777; stroke:none;" d="M3887 2834L3887 2907C3887 2912.1 3884.35 2928.6 3888.6 2931.97C3893.43 2935.8 3908.97 2933 3915 2933L3986 2933L3986 2932L3888 2932L3888 2864L3887 2834z"/>
<path style="fill:#010101; stroke:none;" d="M3888 2834L3888 2932L3986 2932L3986 2834L3888 2834z"/>
<path style="fill:#b9b9b9; stroke:none;" d="M3887 2932L3888 2933L3887 2932M3022 3488L3023 3488L3023 3049L3286 3049L3286 3111C3291.11 3098.83 3287 3077.25 3287 3064C3287 3060.37 3288.6 3051.56 3285.4 3049.03C3282.3 3046.58 3274.73 3048 3271 3048L3232 3048L3082 3048L3039 3048C3035.07 3048 3026.85 3046.46 3023.6 3049.03C3019.15 3052.55 3022 3070.62 3022 3076L3022 3157L3022 3488M3417 3112L3418 3112L3418 3049L3681 3049L3662 3048L3622 3048L3481 3048L3436 3048L3418.6 3049.03L3417 3065L3417 3112M3725 3048L3725 3049L3813 3049L3813 3111C3818.11 3098.83 3814 3077.25 3814 3064C3814 3060.37 3815.6 3051.56 3812.4 3049.03C3807.99 3045.54 3794.47 3048 3789 3048L3725 3048M3944 3111L3945 3111L3945 3049L4033 3049L4012 3048L3966 3048L3945.03 3049.6L3944 3066L3944 3111M4076 3048L4076 3049L4384 3049L4356 3048L4293 3048L4076 3048M4472 3048L4472 3049L4559 3049L4532 3048L4472 3048z"/>
<path style="fill:#010101; stroke:none;" d="M3023 3049L3023 3488L3110 3488L3110 3362L3286 3362L3286 3299L3330 3299L3330 3112L3286 3112L3286 3049L3023 3049M3418 3049L3418 3111L3482 3111C3487.27 3111 3500.43 3108.64 3504.4 3112.6C3508.14 3116.35 3506 3128.07 3506 3133L3506 3192L3506 3425L3418 3425L3418 3488L3681 3488L3681 3425L3593 3425L3593 3192L3593 3133C3593 3128.07 3590.86 3116.35 3594.6 3112.6C3598.57 3108.64 3611.73 3111 3617 3111L3681 3111L3681 3049L3418 3049z"/>
<path style="fill:#777777; stroke:none;" d="M3681 3049L3681 3111L3682 3111L3682 3069L3681 3049z"/>
<path style="fill:#010101; stroke:none;" d="M3725 3049L3725 3174L3769 3174L3769 3237L3813 3237L3813 3300L3769 3300L3769 3363L3725 3363L3725 3488L3813 3488L3813 3425L3857 3425L3857 3362L3901 3362L3901 3425L3945 3425L3945 3488L4032 3488L4032 3363L4001 3363L3989.6 3361.4L3988 3345L3988 3300L3945 3300L3945 3237L3988 3237L3988 3192L3989.6 3175.6L4001 3174L4032 3174L4032 3049L3945 3049L3945 3112L3901 3112L3901 3175L3857 3175L3857 3112L3813 3112L3813 3049L3725 3049z"/>
<path style="fill:#3f3f3f; stroke:none;" d="M4032 3049L4032 3174L4033 3174L4033 3087C4033 3076.1 4036.21 3059.03 4032 3049M4076 3049L4076 3488L4077 3488L4077 3177L4077 3088C4077 3076.84 4080.31 3059.27 4076 3049z"/>
<path style="fill:#010101; stroke:none;" d="M4077 3049L4077 3488L4384 3488L4384 3425L4164 3425L4164 3299L4340 3299L4340 3237L4164 3237L4164 3111L4384 3111L4384 3049L4077 3049z"/>
<path style="fill:#777777; stroke:none;" d="M4471 3049L4471 3488L4472 3488L4472 3177L4472 3088C4472 3076.84 4475.31 3059.27 4471 3049z"/>
<path style="fill:#010101; stroke:none;" d="M4472 3049L4472 3488L4735 3488L4735 3425L4559 3425L4559 3049L4472 3049z"/>
<path style="fill:#777777; stroke:none;" d="M4559 3049L4559 3425L4560 3425L4560 3159L4560 3082L4559 3049z"/>
<path style="fill:#3f3f3f; stroke:none;" d="M3110 3299L3111 3299L3111 3112L3242 3112L3242 3300C3246.71 3288.78 3243 3269.21 3243 3257L3243 3157L3243 3125C3243 3121.67 3244.18 3115.38 3241.97 3112.6C3238.52 3108.25 3221.24 3111 3216 3111L3139 3111C3133.48 3111 3114.63 3108.06 3111.03 3112.6C3108.7 3115.54 3110 3122.47 3110 3126L3110 3161L3110 3299z"/>
<path style="fill:#777777; stroke:none;" d="M3286 3111L3286 3112L3330 3112C3318.54 3107.19 3298.48 3111 3286 3111z"/>
<path style="fill:#3f3f3f; stroke:none;" d="M3418 3111L3418 3112L3505 3112L3478 3111L3418 3111M3594 3111L3594 3112L3681 3112L3654 3111L3594 3111z"/>
<path style="fill:#b9b9b9; stroke:none;" d="M3681 3111L3682 3112L3681 3111z"/>
<path style="fill:#777777; stroke:none;" d="M3813 3111L3813 3112L3857 3112C3845.54 3107.19 3825.48 3111 3813 3111z"/>
<path style="fill:#b9b9b9; stroke:none;" d="M3900 3111L3900 3174L3901 3174L3901 3131L3900 3111z"/>
<path style="fill:#777777; stroke:none;" d="M3901 3111L3901 3112L3945 3112C3933.54 3107.19 3913.48 3111 3901 3111z"/>
<path style="fill:#3f3f3f; stroke:none;" d="M4164 3111L4164 3112L4384 3112L4363 3111L4319 3111L4164 3111z"/>
<path style="fill:#ffffff; stroke:none;" d="M3111 3112L3111 3299L3242 3299L3242 3112L3111 3112z"/>
<path style="fill:#b9b9b9; stroke:none;" d="M3330 3112L3330 3300L3331 3300L3331 3168L3331 3130L3330 3112z"/>
<path style="fill:#777777; stroke:none;" d="M3505 3112L3505 3425L3506 3425L3506 3204L3506 3140L3505 3112z"/>
<path style="fill:#3f3f3f; stroke:none;" d="M3593 3112L3593 3425L3594 3425L3594 3204L3594 3140L3593 3112z"/>
<path style="fill:#777777; stroke:none;" d="M4164 3112L4164 3237L4165 3237L4165 3150C4165 3139.1 4168.21 3122.03 4164 3112M3725 3174L3725 3175L3769 3175C3757.54 3170.19 3737.48 3174 3725 3174z"/>
<path style="fill:#3f3f3f; stroke:none;" d="M3857 3174L3857 3175L3901 3175C3889.54 3170.19 3869.48 3174 3857 3174z"/>
<path style="fill:#777777; stroke:none;" d="M3989 3174L3989 3175L4032 3175C4020.77 3170.29 4001.22 3174 3989 3174z"/>
<path style="fill:#b9b9b9; stroke:none;" d="M4032 3174L4033 3175L4032 3174z"/>
<path style="fill:#3f3f3f; stroke:none;" d="M3988 3175L3988 3237L3989 3237L3989 3195L3988 3175z"/>
<path style="fill:#b9b9b9; stroke:none;" d="M4165 3236L4165 3237L4340 3237L4323 3236L4288 3236L4165 3236z"/>
<path style="fill:#777777; stroke:none;" d="M3111 3299L3111 3300L3242 3300C3231.73 3295.69 3214.16 3299 3203 3299L3111 3299z"/>
<path style="fill:#3f3f3f; stroke:none;" d="M3286 3299L3286 3300L3330 3300C3318.54 3295.19 3298.48 3299 3286 3299z"/>
<path style="fill:#777777; stroke:none;" d="M3769 3299L3769 3300L3813 3300C3801.54 3295.19 3781.48 3299 3769 3299M3945 3299L3945 3300L3988 3300C3976.77 3295.29 3957.22 3299 3945 3299z"/>
<path style="fill:#b9b9b9; stroke:none;" d="M3988 3299L3989 3300L3988 3299z"/>
<path style="fill:#3f3f3f; stroke:none;" d="M4164 3299L4164 3300L4340 3300L4323 3299L4287 3299L4164 3299z"/>
<path style="fill:#b9b9b9; stroke:none;" d="M3286 3300L3286 3362L3287 3362L3287 3320L3286 3300z"/>
<path style="fill:#3f3f3f; stroke:none;" d="M3988 3300L3988 3362L3989 3362L3989 3320L3988 3300z"/>
<path style="fill:#777777; stroke:none;" d="M4164 3300L4164 3425L4165 3425L4165 3338C4165 3327.1 4168.21 3310.03 4164 3300z"/>
<path style="fill:#3f3f3f; stroke:none;" d="M3110 3362L3110 3488L3111 3488L3111 3400C3111 3389.1 3114.21 3372.03 3110 3362z"/>
<path style="fill:#777777; stroke:none;" d="M3111 3362L3111 3363L3286 3363L3269 3362L3234 3362L3111 3362z"/>
<path style="fill:#3f3f3f; stroke:none;" d="M3725 3362L3725 3363L3769 3363C3757.54 3358.19 3737.48 3362 3725 3362z"/>
<path style="fill:#777777; stroke:none;" d="M3857 3362L3857 3363L3901 3363C3889.54 3358.19 3869.48 3362 3857 3362z"/>
<path style="fill:#3f3f3f; stroke:none;" d="M3989 3362L3989 3363L4032 3363L4032 3488C4035.31 3480.12 4033 3467.53 4033 3459L4033 3392C4033 3386.34 4036.04 3366.7 4031.4 3363.03C4028.78 3360.95 4023.12 3362 4020 3362L3989 3362z"/>
<path style="fill:#777777; stroke:none;" d="M4032 3362L4033 3363L4032 3362z"/>
<path style="fill:#b9b9b9; stroke:none;" d="M3900 3363L3900 3425L3901 3425L3901 3383L3900 3363M3417 3425L3417 3488L3418 3488L3418 3445L3417 3425z"/>
<path style="fill:#777777; stroke:none;" d="M3681 3425L3681 3488L3682 3488L3682 3445L3681 3425M3813 3425L3814 3426L3813 3425z"/>
<path style="fill:#b9b9b9; stroke:none;" d="M3814 3425L3814 3426L3857 3426C3845.77 3421.29 3826.22 3425 3814 3425M3901 3425L3901 3426L3944 3426L3944 3488C3949.11 3475.83 3945 3454.25 3945 3441C3945 3437.37 3946.6 3428.56 3943.4 3426.03C3940.78 3423.95 3935.12 3425 3932 3425L3901 3425z"/>
<path style="fill:#777777; stroke:none;" d="M3944 3425L3945 3426L3944 3425z"/>
<path style="fill:#b9b9b9; stroke:none;" d="M4735 3425L4735 3488L4736 3488L4736 3445L4735 3425M3813 3426L3813 3488L3814 3488L3814 3446L3813 3426z"/>
<path style="fill:#010101; stroke:none;" d="M3062 3553L3062 3704L3165 3704L3165 3682L3183 3682L3183 3640C3178.68 3640 3171.04 3641.46 3167.32 3638.97C3163.42 3636.37 3163.42 3620.63 3167.32 3618.03C3171.04 3615.54 3178.68 3617 3183 3617L3183 3575C3178.68 3575 3171.04 3576.46 3167.32 3573.97C3162.69 3570.89 3165 3557.92 3165 3553L3062 3553z"/>
<path style="fill:#3f3f3f; stroke:none;" d="M3165 3553L3165 3574L3166 3574L3165 3553z"/>
<path style="fill:#010101; stroke:none;" d="M3262 3553L3262 3575L3245 3575L3245 3596L3228 3596L3228 3704L3262 3704L3262 3661L3314 3661L3314 3704L3348 3704L3348 3596L3331 3596L3331 3575L3314 3575L3314 3553L3262 3553z"/>
<path style="fill:#777777; stroke:none;" d="M3427 3553L3427 3574L3411 3574L3411 3575C3414.97 3575 3423.14 3576.55 3426.4 3573.97C3430.01 3571.11 3428.59 3556.8 3427 3553z"/>
<path style="fill:#010101; stroke:none;" d="M3428 3553L3428 3575L3411 3575L3411 3596L3393 3596L3393 3661L3411 3661L3411 3682L3428 3682L3428 3704L3496 3704C3496 3699.08 3493.69 3686.11 3498.32 3683.03C3502.04 3680.54 3509.68 3682 3514 3682L3514 3661L3480 3661L3478.97 3680.68L3470 3683L3445 3683L3445 3661L3427 3661L3427 3596L3445 3596L3445 3574L3470 3574L3478.97 3576.32L3480 3596L3514 3596L3514 3575C3509.68 3575 3502.04 3576.46 3498.32 3573.97C3493.69 3570.89 3496 3557.92 3496 3553L3428 3553z"/>
<path style="fill:#3f3f3f; stroke:none;" d="M3496 3553L3496 3574L3497 3574L3496 3553z"/>
<path style="fill:#777777; stroke:none;" d="M3558 3553L3558 3704L3559 3704L3559 3598C3559 3585.27 3562.91 3564.69 3558 3553z"/>
<path style="fill:#010101; stroke:none;" d="M3559 3553L3559 3704L3593 3704L3593 3661L3611 3661L3611 3682L3628 3682L3628 3704L3679 3704L3679 3683L3662 3683L3662 3661L3645 3661L3645 3640C3640.68 3640 3633.04 3641.46 3629.32 3638.97C3625.42 3636.37 3625.42 3620.63 3629.32 3618.03C3633.04 3615.54 3640.68 3617 3645 3617L3645 3596L3662 3596L3662 3574L3679 3574L3679 3553L3645 3553L3645 3575L3628 3575L3628 3596L3611 3596L3611 3618L3593 3618L3593 3553L3559 3553z"/>
<path style="fill:#b9b9b9; stroke:none;" d="M3593 3553L3593 3617L3594 3617L3594 3573L3593 3553M3644 3553L3644 3574L3645 3574L3644 3553z"/>
<path style="fill:#777777; stroke:none;" d="M3679 3553L3679 3574L3680 3574L3679 3553z"/>
<path style="fill:#b9b9b9; stroke:none;" d="M3758 3553L3758 3574L3759 3574L3758 3553z"/>
<path style="fill:#010101; stroke:none;" d="M3759 3553L3759 3575L3742 3575L3742 3596L3725 3596L3725 3661L3742 3661L3742 3682L3759 3682L3759 3704L3845 3704L3845 3618L3794 3618L3794 3639L3811 3639L3811 3670C3811 3673.31 3811.98 3678.81 3809.4 3681.4C3804.24 3686.56 3783.11 3683 3776 3683L3776 3661L3759 3661L3759 3596L3776 3596L3776 3574L3845 3574L3845 3553L3759 3553z"/>
<path style="fill:#b9b9b9; stroke:none;" d="M3845 3553L3845 3575L3846 3575L3845 3553M3889 3553L3889 3704L3890 3704L3890 3598C3890 3585.27 3893.91 3564.69 3889 3553z"/>
<path style="fill:#010101; stroke:none;" d="M3890 3553L3890 3704L3924 3704L3924 3661L3942 3661L3942 3682L3959 3682L3959 3704L4010 3704L4010 3683C4005.91 3683 3998.86 3684.34 3995.32 3681.97C3990.69 3678.89 3993 3665.92 3993 3661L3976 3661L3976 3639L4010 3639L4010 3575L3993 3575L3993 3553L3890 3553z"/>
<path style="fill:#777777; stroke:none;" d="M3993 3553L3994.6 3573.97L4010 3575L4010 3574L3994 3574L3993 3553M4072 3553L4072 3574L4056 3574L4056 3575C4059.97 3575 4068.14 3576.55 4071.4 3573.97C4075.01 3571.11 4073.59 3556.8 4072 3553z"/>
<path style="fill:#010101; stroke:none;" d="M4073 3553L4073 3575L4056 3575L4056 3682L4073 3682L4073 3704L4159 3704L4159 3682L4176 3682L4176 3575L4159 3575L4159 3553L4073 3553z"/>
<path style="fill:#b9b9b9; stroke:none;" d="M4220 3553L4220 3682L4221 3682L4221 3592C4221 3580.84 4224.31 3563.27 4220 3553z"/>
<path style="fill:#010101; stroke:none;" d="M4221 3553L4221 3682L4238 3682L4238 3704L4324 3704L4324 3682L4341 3682L4341 3553L4307 3553L4307 3683L4255 3683L4255 3553L4221 3553z"/>
<path style="fill:#777777; stroke:none;" d="M4255 3553L4255 3682L4256 3682L4256 3592C4256 3580.84 4259.31 3563.27 4255 3553z"/>
<path style="fill:#3f3f3f; stroke:none;" d="M4341 3553L4341 3682L4342 3682L4342 3592C4342 3580.84 4345.31 3563.27 4341 3553z"/>
<path style="fill:#777777; stroke:none;" d="M4386 3553L4386 3704L4387 3704L4387 3598C4387 3585.27 4390.91 3564.69 4386 3553z"/>
<path style="fill:#010101; stroke:none;" d="M4387 3553L4387 3704L4421 3704L4421 3639L4439 3639L4439 3661L4456 3661L4456 3682L4473 3682L4473 3704L4507 3704L4507 3553L4473 3553L4473 3618C4468.68 3618 4461.04 3619.46 4457.32 3616.97C4452.69 3613.89 4455 3600.92 4455 3596L4438 3596L4438 3575L4421 3575L4421 3553L4387 3553z"/>
<path style="fill:#b9b9b9; stroke:none;" d="M4421 3553L4421 3574L4422 3574L4421 3553M4472 3553L4472 3617L4473 3617L4473 3573L4472 3553z"/>
<path style="fill:#777777; stroke:none;" d="M4507 3553L4507 3704L4508 3704L4508 3598C4508 3585.27 4511.91 3564.69 4507 3553z"/>
<path style="fill:#010101; stroke:none;" d="M4552 3553L4552 3704L4638 3704L4638 3682L4655 3682L4655 3661L4673 3661L4673 3596L4655 3596L4655 3575L4638 3575L4638 3553L4552 3553z"/>
<path style="fill:#777777; stroke:none;" d="M4638 3553L4639.6 3573.97L4655 3575L4655 3574L4639 3574L4638 3553z"/>
<path style="fill:#3f3f3f; stroke:none;" d="M3096 3618L3097 3618L3097 3575L3148 3575L3148 3617C3151.61 3608.4 3149 3594.32 3149 3585C3149 3582.2 3149.92 3577.02 3147.4 3575.03C3142.71 3571.32 3127.85 3574 3122 3574C3116.9 3574 3100.4 3571.35 3097.03 3575.6C3094.95 3578.22 3096 3583.88 3096 3587L3096 3618z"/>
<path style="fill:#777777; stroke:none;" d="M3166 3574L3166 3575L3183 3575L3166 3574M3245 3574L3245 3575L3262 3575L3245 3574z"/>
<path style="fill:#3f3f3f; stroke:none;" d="M3279 3574L3279 3575L3297 3575L3279 3574z"/>
<path style="fill:#777777; stroke:none;" d="M3314 3574L3314 3575L3331 3575L3314 3574z"/>
<path style="fill:#b9b9b9; stroke:none;" d="M3410 3574L3411 3575L3410 3574z"/>
<path style="fill:#3f3f3f; stroke:none;" d="M3427 3574L3428 3575L3427 3574M3445 3574L3445 3575L3479 3575L3445 3574z"/>
<path style="fill:#777777; stroke:none;" d="M3497 3574L3497 3575L3514 3575L3497 3574z"/>
<path style="fill:#b9b9b9; stroke:none;" d="M3627 3574L3628 3575L3627 3574z"/>
<path style="fill:#777777; stroke:none;" d="M3628 3574L3628 3575L3645 3575L3628 3574z"/>
<path style="fill:#3f3f3f; stroke:none;" d="M3662 3574L3662 3575L3679 3575L3662 3574z"/>
<path style="fill:#b9b9b9; stroke:none;" d="M3679 3574L3680 3575L3679 3574M3741 3574L3742 3575L3741 3574z"/>
<path style="fill:#777777; stroke:none;" d="M3742 3574L3742 3575L3759 3575L3742 3574z"/>
<path style="fill:#3f3f3f; stroke:none;" d="M3776 3574L3776 3575L3845 3575L3823 3574L3776 3574M3925 3574L3925 3575L3976 3575C3962.87 3569.49 3939.31 3574 3925 3574M3993 3574L3994 3575L3993 3574z"/>
<path style="fill:#b9b9b9; stroke:none;" d="M4010 3574L4011 3575L4010 3574M4055 3574L4056 3575L4055 3574z"/>
<path style="fill:#3f3f3f; stroke:none;" d="M4072 3574L4073 3575L4072 3574M4090 3574L4090 3575L4142 3575L4125 3574L4090 3574z"/>
<path style="fill:#777777; stroke:none;" d="M4159 3574L4159 3575L4176 3575L4159 3574M4421 3574L4421 3575L4438 3575L4438 3596C4439.59 3592.2 4441.01 3577.89 4437.4 3575.03C4433.99 3572.33 4425.17 3574 4421 3574z"/>
<path style="fill:#b9b9b9; stroke:none;" d="M4438 3574L4439 3575L4438 3574z"/>
<path style="fill:#3f3f3f; stroke:none;" d="M4621 3683L4621 3682L4587 3682L4587 3575L4621 3575L4596 3574L4587.03 3575.6L4586 3594L4586 3643L4586 3671L4587.03 3681.4L4596 3683L4621 3683M4638 3574L4639 3575L4638 3574z"/>
<path style="fill:#b9b9b9; stroke:none;" d="M4655 3574L4656 3575L4655 3574z"/>
<path style="fill:#ffffff; stroke:none;" d="M3097 3575L3097 3617L3148 3617L3148 3575L3097 3575z"/>
<path style="fill:#b9b9b9; stroke:none;" d="M3244 3575L3244 3596L3245 3596L3244 3575z"/>
<path style="fill:#777777; stroke:none;" d="M3279 3575L3279 3596L3280 3596L3279 3575z"/>
<path style="fill:#ffffff; stroke:none;" d="M3280 3575C3280 3579.92 3282.31 3592.89 3277.68 3595.97C3274.14 3598.34 3267.09 3597 3263 3597L3263 3639L3313 3639L3313 3597C3308.91 3597 3301.86 3598.34 3298.32 3595.97C3293.69 3592.89 3296 3579.92 3296 3575L3280 3575z"/>
<path style="fill:#777777; stroke:none;" d="M3296 3575L3296 3596L3297 3596L3296 3575z"/>
<path style="fill:#b9b9b9; stroke:none;" d="M3331 3575L3331 3596L3332 3596L3331 3575z"/>
<path style="fill:#3f3f3f; stroke:none;" d="M3410 3575L3410 3596L3411 3596L3410 3575M3479 3575L3479 3596L3480 3596L3479 3575z"/>
<path style="fill:#777777; stroke:none;" d="M3627 3575L3627 3596L3628 3596L3627 3575z"/>
<path style="fill:#b9b9b9; stroke:none;" d="M3662 3575L3662 3596L3663 3596L3662 3575z"/>
<path style="fill:#777777; stroke:none;" d="M3741 3575L3741 3596L3742 3596L3741 3575z"/>
<path style="fill:#b9b9b9; stroke:none;" d="M3776 3575L3776 3596L3777 3596L3776 3575z"/>
<path style="fill:#777777; stroke:none;" d="M3924 3575L3924 3639L3925 3639L3925 3595L3924 3575z"/>
<path style="fill:#ffffff; stroke:none;" d="M3925 3575L3925 3639L3958 3639C3958 3634.08 3955.69 3621.11 3960.32 3618.03C3964.04 3615.54 3971.68 3617 3976 3617L3976 3575L3925 3575z"/>
<path style="fill:#3f3f3f; stroke:none;" d="M4010 3575L4010 3639L4011 3639L4011 3595L4010 3575M4055 3575L4055 3682L4056 3682L4056 3608L4055 3575z"/>
<path style="fill:#ffffff; stroke:none;" d="M4090 3575L4090 3682L4141 3682L4141 3575L4090 3575z"/>
<path style="fill:#777777; stroke:none;" d="M4141 3575L4141 3682L4142 3682L4142 3608L4141 3575z"/>
<path style="fill:#b9b9b9; stroke:none;" d="M4176 3575L4176 3682L4177 3682L4177 3608L4176 3575z"/>
<path style="fill:#ffffff; stroke:none;" d="M4587 3575L4587 3682L4621 3682L4621 3660L4638 3660L4638 3597L4621 3597L4621 3575L4587 3575z"/>
<path style="fill:#3f3f3f; stroke:none;" d="M4655 3575L4655 3596L4656 3596L4655 3575z"/>
<path style="fill:#777777; stroke:none;" d="M3227 3596L3227 3704L3228 3704L3228 3629L3227 3596M3262 3596L3263 3597L3262 3596z"/>
<path style="fill:#b9b9b9; stroke:none;" d="M3263 3596L3263 3597L3279 3597L3263 3596M3297 3596L3297 3597L3313 3597L3313 3639L3314 3607L3312.4 3597.03L3297 3596z"/>
<path style="fill:#777777; stroke:none;" d="M3313 3596L3314 3597L3313 3596M3348 3596L3348 3704L3349 3704L3349 3629L3348 3596z"/>
<path style="fill:#3f3f3f; stroke:none;" d="M3427 3596L3427 3661L3428 3661L3428 3617L3427 3596z"/>
<path style="fill:#b9b9b9; stroke:none;" d="M3428 3596L3428 3597L3445 3597L3428 3596M3479 3596L3479 3597L3514 3597L3479 3596z"/>
<path style="fill:#3f3f3f; stroke:none;" d="M3610 3596L3610 3618L3611 3618L3610 3596z"/>
<path style="fill:#b9b9b9; stroke:none;" d="M3645 3596L3645 3597L3662 3597L3645 3596z"/>
<path style="fill:#3f3f3f; stroke:none;" d="M3724 3596L3724 3661L3725 3661L3725 3617L3724 3596z"/>
<path style="fill:#b9b9b9; stroke:none;" d="M3759 3596L3759 3597L3776 3597L3759 3596z"/>
<path style="fill:#3f3f3f; stroke:none;" d="M4455 3596L4455 3617L4456 3617L4455 3596z"/>
<path style="fill:#b9b9b9; stroke:none;" d="M4621 3596L4621 3597L4638 3597L4621 3596z"/>
<path style="fill:#3f3f3f; stroke:none;" d="M4638 3596L4638 3661L4639 3661L4639 3617L4638 3596z"/>
<path style="fill:#b9b9b9; stroke:none;" d="M3262 3597L3262 3639L3263 3639C3263 3627.04 3266.61 3607.99 3262 3597z"/>
<path style="fill:#777777; stroke:none;" d="M3097 3617L3097 3618L3148 3618C3134.87 3612.49 3111.31 3617 3097 3617z"/>
<path style="fill:#3f3f3f; stroke:none;" d="M3166 3617L3166 3618L3183 3618L3166 3617z"/>
<path style="fill:#777777; stroke:none;" d="M3593 3617L3593 3618L3610 3618L3593 3617z"/>
<path style="fill:#3f3f3f; stroke:none;" d="M3628 3617L3628 3618L3645 3618L3628 3617z"/>
<path style="fill:#b9b9b9; stroke:none;" d="M3793 3617L3794 3618L3793 3617z"/>
<path style="fill:#777777; stroke:none;" d="M3794 3617L3794 3618L3845 3618C3831.87 3612.49 3808.31 3617 3794 3617M3959 3617L3959 3618L3976 3618L3959 3617M4456 3617L4456 3618L4473 3618L4456 3617z"/>
<path style="fill:#3f3f3f; stroke:none;" d="M3165 3618L3165 3639L3166 3639L3165 3618M3627 3618L3627 3639L3628 3639L3627 3618M3793 3618L3793 3639L3794 3639L3793 3618z"/>
<path style="fill:#b9b9b9; stroke:none;" d="M3845 3618L3845 3704L3846 3704L3846 3645L3845 3618M3958 3618L3958 3639L3959 3639L3958 3618z"/>
<path style="fill:#3f3f3f; stroke:none;" d="M3096 3639L3096 3670L3097.03 3681.4L3108 3683L3137 3683L3147.97 3681.4L3149 3670L3149 3640L3148 3640L3148 3682L3097 3682C3097 3669.78 3100.71 3650.23 3096 3639z"/>
<path style="fill:#777777; stroke:none;" d="M3097 3639L3097 3640L3148 3640C3134.87 3634.49 3111.31 3639 3097 3639z"/>
<path style="fill:#3f3f3f; stroke:none;" d="M3166 3639L3166 3640L3183 3640L3166 3639M3262 3639L3262 3640L3314 3640L3297 3639L3262 3639M3628 3639L3628 3640L3645 3640L3628 3639z"/>
<path style="fill:#b9b9b9; stroke:none;" d="M3793 3639L3794 3640L3793 3639z"/>
<path style="fill:#777777; stroke:none;" d="M3794 3639L3794 3640L3810 3640L3810 3682L3811 3650L3809.4 3640.03L3794 3639z"/>
<path style="fill:#3f3f3f; stroke:none;" d="M3810 3639L3811 3640L3810 3639M3924 3639L3924 3640L3959 3640L3924 3639z"/>
<path style="fill:#777777; stroke:none;" d="M3976 3639L3976 3640L4010 3640L3976 3639z"/>
<path style="fill:#b9b9b9; stroke:none;" d="M4010 3639L4011 3640L4010 3639z"/>
<path style="fill:#777777; stroke:none;" d="M4421 3639L4421 3640L4438 3640L4421 3639z"/>
<path style="fill:#3f3f3f; stroke:none;" d="M4438 3639L4438 3661L4439 3661L4438 3639z"/>
<path style="fill:#ffffff; stroke:none;" d="M3097 3640L3097 3682L3148 3682L3148 3640L3097 3640z"/>
<path style="fill:#b9b9b9; stroke:none;" d="M3976 3640L3977.6 3659.97L3993 3661L3993 3660L3977 3660L3976 3640M4421 3640L4421 3704L4422 3704L4422 3660L4421 3640M3428 3660L3428 3661L3445 3661L3428 3660M3479 3660L3479 3661L3514 3661L3479 3660M3645 3660L3645 3661L3662 3661L3645 3660M3759 3660L3759 3661L3776 3661L3759 3660z"/>
<path style="fill:#777777; stroke:none;" d="M3976 3660L3977 3661L3976 3660z"/>
<path style="fill:#b9b9b9; stroke:none;" d="M4621 3660L4621 3661L4638 3661L4621 3660M3262 3661L3262 3704L3263 3704C3263 3691.78 3266.71 3672.23 3262 3661M3313 3661L3313 3704L3314 3704C3314 3691.78 3317.71 3672.23 3313 3661z"/>
<path style="fill:#3f3f3f; stroke:none;" d="M3410 3661L3410 3682L3411 3682L3410 3661M3479 3661L3479 3682L3480 3682L3479 3661z"/>
<path style="fill:#b9b9b9; stroke:none;" d="M3593 3661L3593 3704L3594 3704C3594 3691.78 3597.71 3672.23 3593 3661z"/>
<path style="fill:#3f3f3f; stroke:none;" d="M3610 3661L3610 3682L3611 3682L3610 3661z"/>
<path style="fill:#b9b9b9; stroke:none;" d="M3662 3661L3662 3682L3663 3682L3662 3661z"/>
<path style="fill:#777777; stroke:none;" d="M3741 3661L3742.6 3681.97L3759 3683L3759 3682L3742 3682L3741 3661z"/>
<path style="fill:#b9b9b9; stroke:none;" d="M3776 3661L3776 3682L3777 3682L3776 3661z"/>
<path style="fill:#777777; stroke:none;" d="M3924 3661L3924 3704L3925 3704C3925 3691.78 3928.71 3672.23 3924 3661M3941 3661L3942.6 3681.97L3959 3683L3959 3682L3942 3682L3941 3661M3993 3661L3993 3682L3994 3682L3993 3661M4455 3661L4456.6 3681.97L4473 3683L4473 3682L4456 3682L4455 3661z"/>
<path style="fill:#3f3f3f; stroke:none;" d="M4655 3661L4655 3682L4656 3682L4655 3661M3165 3682L3165 3704L3166 3704L3165 3682z"/>
<path style="fill:#777777; stroke:none;" d="M3166 3682L3166 3683L3183 3683L3166 3682z"/>
<path style="fill:#b9b9b9; stroke:none;" d="M3410 3682L3411 3683L3410 3682z"/>
<path style="fill:#777777; stroke:none;" d="M3411 3682L3411 3683L3427 3683L3427 3704C3428.59 3700.2 3430.01 3685.89 3426.4 3683.03C3423.14 3680.45 3414.97 3682 3411 3682z"/>
<path style="fill:#3f3f3f; stroke:none;" d="M3427 3682L3428 3683L3427 3682M3445 3682L3445 3683L3479 3683L3445 3682z"/>
<path style="fill:#777777; stroke:none;" d="M3497 3682L3497 3683L3514 3683L3497 3682z"/>
<path style="fill:#b9b9b9; stroke:none;" d="M3610 3682L3611 3683L3610 3682z"/>
<path style="fill:#777777; stroke:none;" d="M3611 3682L3611 3683L3627 3683L3627 3704C3628.59 3700.2 3630.01 3685.89 3626.4 3683.03C3623.14 3680.45 3614.97 3682 3611 3682z"/>
<path style="fill:#3f3f3f; stroke:none;" d="M3627 3682L3628 3683L3627 3682M3662 3682L3662 3683L3679 3683L3662 3682z"/>
<path style="fill:#b9b9b9; stroke:none;" d="M3679 3682L3680 3683L3679 3682M3741 3682L3742 3683L3741 3682z"/>
<path style="fill:#3f3f3f; stroke:none;" d="M3776 3682L3776 3683L3810 3683L3776 3682z"/>
<path style="fill:#b9b9b9; stroke:none;" d="M3941 3682L3942 3683L3941 3682z"/>
<path style="fill:#3f3f3f; stroke:none;" d="M3994 3682L3994 3683L4010 3683L4010 3704C4011.59 3700.2 4013.01 3685.89 4009.4 3683.03C4006.14 3680.45 3997.97 3682 3994 3682z"/>
<path style="fill:#777777; stroke:none;" d="M4010 3682L4011 3683L4010 3682z"/>
<path style="fill:#b9b9b9; stroke:none;" d="M4055 3682L4056 3683L4055 3682z"/>
<path style="fill:#777777; stroke:none;" d="M4056 3682L4056 3683L4072 3683L4072 3704C4073.59 3700.2 4075.01 3685.89 4071.4 3683.03C4068.14 3680.45 4059.97 3682 4056 3682z"/>
<path style="fill:#3f3f3f; stroke:none;" d="M4072 3682L4073 3683L4072 3682M4090 3682L4090 3683L4142 3683L4125 3682L4090 3682z"/>
<path style="fill:#777777; stroke:none;" d="M4159 3682L4159 3683L4176 3683L4159 3682M4221 3682L4221 3683L4238 3683L4221 3682z"/>
<path style="fill:#3f3f3f; stroke:none;" d="M4255 3682L4255 3683L4307 3683L4290 3682L4255 3682M4324 3682L4325 3683L4324 3682z"/>
<path style="fill:#777777; stroke:none;" d="M4325 3682L4325 3683L4341 3683L4325 3682z"/>
<path style="fill:#b9b9b9; stroke:none;" d="M4341 3682L4342 3683L4341 3682M4455 3682L4456 3683L4455 3682z"/>
<path style="fill:#3f3f3f; stroke:none;" d="M4638 3682L4639 3683L4638 3682z"/>
<path style="fill:#777777; stroke:none;" d="M4639 3682L4639 3683L4655 3683L4639 3682z"/>
<path style="fill:#b9b9b9; stroke:none;" d="M4655 3682L4656 3683L4655 3682z"/>
<path style="fill:#3f3f3f; stroke:none;" d="M3496 3683L3496 3704L3497 3704L3496 3683z"/>
<path style="fill:#777777; stroke:none;" d="M3679 3683L3679 3704L3680 3704L3679 3683z"/>
<path style="fill:#b9b9b9; stroke:none;" d="M3758 3683L3758 3704L3759 3704L3758 3683M3958 3683L3958 3704L3959 3704L3958 3683z"/>
<path style="fill:#777777; stroke:none;" d="M4324 3683L4324 3704L4325 3704L4324 3683z"/>
<path style="fill:#b9b9b9; stroke:none;" d="M4472 3683L4472 3704L4473 3704L4472 3683z"/>
<path style="fill:#777777; stroke:none;" d="M4638 3683L4638 3704L4639 3704L4638 3683z"/>
</svg>
