<?xml version="1.0" standalone="yes"?>
<svg xmlns="http://www.w3.org/2000/svg" width="3000" height="2000">
<path style="fill:#1d1d1d; stroke:none;" d="M0 0L0 2000L3000 2000L3000 0L0 0z"/>
<path style="fill:#17483f; stroke:none;" d="M1636 1L1637 2L1636 1z"/>
<path style="fill:#0c594d; stroke:none;" d="M1637 1L1637 2L1707 2L1685 1L1637 1z"/>
<path style="fill:#17483f; stroke:none;" d="M1820 1L1820 2L1890 2L1890 21C1891.52 17.3834 1892.88 4.78589 1889.4 2.02771C1885.71 -0.89502 1875.51 1 1871 1L1820 1z"/>
<path style="fill:#019c84; stroke:none;" d="M1636 2L1636 58L1637 58L1637 20L1636 2z"/>
<path style="fill:#01fed6; stroke:none;" d="M1637 2L1637 58L1707 58L1707 2L1637 2z"/>
<path style="fill:#0c594d; stroke:none;" d="M1819 2L1820 21L1821 21L1819 2z"/>
<path style="fill:#019c84; stroke:none;" d="M1820 2L1821.6 19.9723L1836 21L1873 21L1888.4 19.9723L1890 2L1820 2z"/>
<path style="fill:#17483f; stroke:none;" d="M2015 16L2015 60L2058 60L2058 16L2015 16M1819 20L1820 21L1819 20z"/>
<path style="fill:#0c594d; stroke:none;" d="M1889 20L1890 21L1889 20z"/>
<path style="fill:#019c84; stroke:none;" d="M1433 58L1433 65L1434 65L1435 58L1433 58z"/>
<path style="fill:#01fed6; stroke:none;" d="M1435 58L1433 66C1447.99 70.4296 1468.36 67 1484 67L1484 59L1435 58z"/>
<path style="fill:#019c84; stroke:none;" d="M1436 58L1436 59L1484 59C1471.59 53.7906 1449.53 58 1436 58z"/>
<path style="fill:#17483f; stroke:none;" d="M1636 58L1637 59L1636 58z"/>
<path style="fill:#0c594d; stroke:none;" d="M1637 58L1637 59L1707 59L1685 58L1637 58z"/>
<path style="fill:#019c84; stroke:none;" d="M1433 66L1434 67L1433 66z"/>
<path style="fill:#17483f; stroke:none;" d="M1433 67L1434 68L1433 67z"/>
<path style="fill:#0c594d; stroke:none;" d="M1434 67L1434 68L1484 68C1471.11 62.5912 1448.05 67 1434 67z"/>
<path style="fill:#019c84; stroke:none;" d="M2681 73L2681 112L2719 112L2719 111L2682 111C2682 100.089 2685.21 83.0364 2681 73z"/>
<path style="fill:#01fed6; stroke:none;" d="M2682 73L2682 111L2720 111C2717.41 100.136 2717.41 83.8635 2720 73L2682 73z"/>
<path style="fill:#019c84; stroke:none;" d="M2719 74L2719 110L2720 110C2720 99.6124 2723.01 83.5602 2719 74z"/>
<path style="fill:#17483f; stroke:none;" d="M1670 95L1671 96L1670 95z"/>
<path style="fill:#019c84; stroke:none;" d="M1671 95L1671 96L1707 96C1697.44 91.9886 1681.39 95 1671 95z"/>
<path style="fill:#17483f; stroke:none;" d="M460 96L460 127L461.603 137.972L473 139L502 139L502 96L460 96z"/>
<path style="fill:#0c594d; stroke:none;" d="M1670 96L1670 132L1671 132C1671 121.613 1674.01 105.559 1670 96z"/>
<path style="fill:#01fed6; stroke:none;" d="M1671 96L1671 132L1707 131L1707 96L1671 96z"/>
<path style="fill:#0c594d; stroke:none;" d="M2831 107L2831 108C2850.84 108 2874.7 104.405 2894 109L2876 107L2831 107z"/>
<path style="fill:#17483f; stroke:none;" d="M2893 107L2894 108L2893 107M2830 108L2830 175L2831 175L2831 129L2830 108z"/>
<path style="fill:#019c84; stroke:none;" d="M2831 108L2831 175L2876 175C2880.12 175 2889 176.662 2892.4 173.972C2895.35 171.632 2894 164.316 2894 161L2894 123C2894 119.395 2895.64 110.549 2891.68 108.603C2887.22 106.406 2878.9 108 2874 108L2831 108z"/>
<path style="fill:#0c594d; stroke:none;" d="M2719 111L2720 112L2719 111z"/>
<path style="fill:#019c84; stroke:none;" d="M1672 131L1672 132L1707 132L1672 131z"/>
<path style="fill:#0c594d; stroke:none;" d="M2771 138L2771 170L2772 170L2771 138z"/>
<path style="fill:#01fed6; stroke:none;" d="M2772 138L2772 170L2804 170L2804 138L2772 138z"/>
<path style="fill:#0c594d; stroke:none;" d="M2804 138L2804 170L2805 170L2804 138z"/>
<path style="fill:#17483f; stroke:none;" d="M2771 170L2772 171L2771 170z"/>
<path style="fill:#019c84; stroke:none;" d="M2772 170L2772 171L2804 171L2772 170z"/>
<path style="fill:#17483f; stroke:none;" d="M2804 170L2805 171L2804 170z"/>
<path style="fill:#0c594d; stroke:none;" d="M2893 174L2894 175L2893 174z"/>
<path style="fill:#17483f; stroke:none;" d="M2516 183L2516 205L2563 205L2578.97 203.397L2580 183L2516 183z"/>
<path style="fill:#0c594d; stroke:none;" d="M1587 191L1588 192L1587 191z"/>
<path style="fill:#019c84; stroke:none;" d="M1588.6 192.028C1584.95 194.918 1587 206.766 1587 211C1587 216.088 1584.76 228.275 1588.03 232.397C1589.89 234.749 1594.38 233.999 1597 234C1604.16 234.003 1623.74 237.455 1629.4 232.972C1633.05 230.082 1631 218.235 1631 214C1631 208.912 1633.24 196.725 1629.97 192.603C1628.11 190.25 1623.62 191.001 1621 191C1613.84 190.997 1594.26 187.545 1588.6 192.028z"/>
<path style="fill:#0c594d; stroke:none;" d="M1630 191L1631 192L1630 191z"/>
<path style="fill:#17483f; stroke:none;" d="M387 196L388 197L387 196z"/>
<path style="fill:#019c84; stroke:none;" d="M388 196L389 197L388 196z"/>
<path style="fill:#01fed6; stroke:none;" d="M389 196L388 228L419 228L419 197L389 196z"/>
<path style="fill:#019c84; stroke:none;" d="M390 196L390 197L419 197L419 228C420.955 223.341 422.624 200.376 418.397 197.028C413.275 192.971 396.449 196 390 196z"/>
<path style="fill:#0c594d; stroke:none;" d="M419 196L420 197L419 196M387 197L387 228L388 228L387 197z"/>
<path style="fill:#17483f; stroke:none;" d="M2883 209L2884 210L2883 209z"/>
<path style="fill:#0c594d; stroke:none;" d="M2884 209L2884 210L2956 210L2933 209L2884 209z"/>
<path style="fill:#17483f; stroke:none;" d="M2956 209L2957 210L2956 209z"/>
<path style="fill:#019c84; stroke:none;" d="M2883.33 210.667L2883.67 211.333L2883.33 210.667z"/>
<path style="fill:#01fed6; stroke:none;" d="M2884 222L2956 222L2954.53 210.603L2939 210L2901 210L2884.83 211.028L2884 222z"/>
<path style="fill:#019c84; stroke:none;" d="M2956.33 210.667L2956.67 211.333L2956.33 210.667M2883 213L2885.32 222.397L2901 223L2938 223L2954.68 222.397L2957 213L2956 213L2956 222L2884 222L2883 213z"/>
<path style="fill:#0c594d; stroke:none;" d="M2883 222L2884 223L2883 222M2956 222L2957 223L2956 222M1587 233L1587 234C1598.05 237.267 1619.95 237.267 1631 234L1631 233C1618.69 235.93 1599.31 235.93 1587 233z"/>
<path style="fill:#17483f; stroke:none;" d="M1587 234L1588 235L1587 234M1630 234L1631 235L1630 234M2559 237L2560 238L2559 237z"/>
<path style="fill:#019c84; stroke:none;" d="M2560 237L2560 305L2627 305L2627 237L2560 237z"/>
<path style="fill:#0c594d; stroke:none;" d="M2627 237L2627 305L2628 305L2628 259L2627 237M2559 238L2559 305L2560 305L2560 259L2559 238M2563 241C2563 259.559 2558.75 284.233 2564 302L2565 302L2564 258L2563 241z"/>
<path style="fill:#17483f; stroke:none;" d="M2564 241L2564 242L2623 242L2604 241L2564 241z"/>
<path style="fill:#0c594d; stroke:none;" d="M2623 241L2623 301L2624 301L2624 260L2623 241z"/>
<path style="fill:#1d1d1d; stroke:none;" d="M2564 242L2564 301L2623 301L2623 242L2564 242z"/>
<path style="fill:#0c594d; stroke:none;" d="M2652 245L2653 246L2652 245z"/>
<path style="fill:#019c84; stroke:none;" d="M2653.6 246.028C2650.65 248.368 2652 255.684 2652 259C2652 262.731 2650.58 270.302 2653.03 273.397C2655.64 276.693 2677.15 276.543 2680.4 273.972C2683.35 271.632 2682 264.316 2682 261C2682 257.269 2683.42 249.698 2680.97 246.603C2678.36 243.307 2656.85 243.457 2653.6 246.028z"/>
<path style="fill:#0c594d; stroke:none;" d="M2681 245L2682 246L2681 245z"/>
<path style="fill:#01fed6; stroke:none;" d="M2653 246L2653 274L2681 274L2681 246L2653 246z"/>
<path style="fill:#0c594d; stroke:none;" d="M44 252L45 253L44 252z"/>
<path style="fill:#019c84; stroke:none;" d="M87 252L86 252L86 294L45 294L45 253L85 253L55 252L45.0278 253.603L44 276L45.0278 293.397L64 295L85.3966 293.972L87 283L87 252z"/>
<path style="fill:#01fed6; stroke:none;" d="M85 252L45 253L45 294L86 294C86 282.043 89.6107 262.988 85 252z"/>
<path style="fill:#0c594d; stroke:none;" d="M386 257L386 258L454 258L433 257L386 257z"/>
<path style="fill:#17483f; stroke:none;" d="M454 257L455 258L454 257z"/>
<path style="fill:#019c84; stroke:none;" d="M386 258L386 331L437 331L453.972 329.397L455 310L455 258L386 258z"/>
<path style="fill:#0c594d; stroke:none;" d="M1211 258L1212 259L1211 258z"/>
<path style="fill:#019c84; stroke:none;" d="M1248 295L1248 289L1247 289L1247 294L1212 294L1212 259L1247 259L1247 288C1248.88 283.51 1250.51 262.283 1246.4 259.028C1242.56 255.99 1231.71 258 1227 258C1223.27 258 1215.7 256.577 1212.6 259.028C1209.28 261.657 1211 271.214 1211 275C1211 279.513 1209.1 289.706 1212.03 293.397C1214.02 295.918 1219.2 295 1222 295L1248 295z"/>
<path style="fill:#0c594d; stroke:none;" d="M1247 258L1248 259L1247 258z"/>
<path style="fill:#01fed6; stroke:none;" d="M1212 259L1212 294L1247 294L1247 259L1212 259z"/>
<path style="fill:#0c594d; stroke:none;" d="M454 261L455 262L454 261z"/>
<path style="fill:#019c84; stroke:none;" d="M1215 262L1215 291L1216 291L1216 263L1244 263L1215 262z"/>
<path style="fill:#1d1d1d; stroke:none;" d="M1216 263L1216 290L1243 290L1243 263L1216 263z"/>
<path style="fill:#0c594d; stroke:none;" d="M1243 263L1243 290L1216 290L1216 291C1222.9 291 1235.46 293.457 1241.68 290.397C1246.45 288.052 1244.8 267.296 1243 263M691 268L691 269L761 269L739 268L691 268z"/>
<path style="fill:#17483f; stroke:none;" d="M761 268L762 269L761 268z"/>
<path style="fill:#01fed6; stroke:none;" d="M691 269L691 344L761 344L761 269L691 269z"/>
<path style="fill:#019c84; stroke:none;" d="M761 269L761 344L691 344L691 345L742 345L760.397 343.972L762 326L762 287L761 269z"/>
<path style="fill:#0c594d; stroke:none;" d="M2652 274L2653 275L2652 274M2681 274L2682 275L2681 274z"/>
<path style="fill:#019c84; stroke:none;" d="M1243 290L1244 291L1243 290z"/>
<path style="fill:#0c594d; stroke:none;" d="M209 292L210 293L209 292z"/>
<path style="fill:#019c84; stroke:none;" d="M282 370L282 369L210 369L210 293L282 293L264 292L228 292L210.603 293.028L209 308L209 352L210.603 368.972L230 370L282 370z"/>
<path style="fill:#17483f; stroke:none;" d="M282 292L283 293L282 292z"/>
<path style="fill:#01fed6; stroke:none;" d="M210 293L210 369L282 369L282 293L210 293z"/>
<path style="fill:#0c594d; stroke:none;" d="M282 293L282 369L283 369L283 317L282 293M44 294L45 295L44 294M86 294L87 295L86 294M1211 294L1212 295L1211 294z"/>
<path style="fill:#019c84; stroke:none;" d="M213 296L213 346C213 350.513 211.105 360.706 214.028 364.397C217.703 369.037 237.339 366 243 366L268 366C270.693 366 275.125 366.772 277.397 364.972C280.829 362.254 279 351.937 279 348L279 297L278 297L278 365L214 365L214 318L213 296z"/>
<path style="fill:#0c594d; stroke:none;" d="M214 296L214 297L277 297L257 296L214 296z"/>
<path style="fill:#17483f; stroke:none;" d="M277 296L278 297L277 296z"/>
<path style="fill:#1d1d1d; stroke:none;" d="M214 297L214 365L278 365L278 297L214 297z"/>
<path style="fill:#0c594d; stroke:none;" d="M2736 339L2737 339L2737 301L2772 301C2764.61 297.9 2753 299.984 2745 300C2742.3 300.006 2738.05 299.378 2736.6 302.318C2732.38 310.905 2736 329.41 2736 339z"/>
<path style="fill:#01fed6; stroke:none;" d="M2737 301L2737 338L2772 338L2772 301L2737 301z"/>
<path style="fill:#019c84; stroke:none;" d="M2177 302L2178 303L2177 302z"/>
<path style="fill:#01fed6; stroke:none;" d="M2177 303L2178 332L2178 386L2262 386L2262 302L2206 302L2177 303z"/>
<path style="fill:#019c84; stroke:none;" d="M2177 304L2177 387L2258 387L2258 386L2178 386L2178 329L2177 304z"/>
<path style="fill:#17483f; stroke:none;" d="M2559 305L2559 306L2627 306L2606 305L2559 305M145 330L145 331L177 331L145 330z"/>
<path style="fill:#0c594d; stroke:none;" d="M454 330L455 331L454 330M145.333 331.667L145.667 332.333L145.333 331.667z"/>
<path style="fill:#019c84; stroke:none;" d="M177 332C171.833 330.473 149.799 328.032 146.179 332.603C143.509 335.975 145 343.947 145 348C145 351.328 143.825 357.615 146.028 360.397C148.806 363.904 174.402 363.736 176.397 359.682C179.881 352.601 176.431 339.824 177 332z"/>
<path style="fill:#0c594d; stroke:none;" d="M176 331L177 332L176 331M176 334L177 335L176 334z"/>
<path style="fill:#019c84; stroke:none;" d="M2737 338L2737 339L2772 339L2737 338z"/>
<path style="fill:#0c594d; stroke:none;" d="M761 344L762 345L761 344M145 361L145 362C153.549 364.527 168.451 364.527 177 362L177 361C167.59 363.24 154.41 363.24 145 361z"/>
<path style="fill:#17483f; stroke:none;" d="M145 362L146 363L145 362M176 362L177 363L176 362z"/>
<path style="fill:#0c594d; stroke:none;" d="M209 369L210 370L209 369z"/>
<path style="fill:#17483f; stroke:none;" d="M282 369L283 370L282 369z"/>
<path style="fill:#019c84; stroke:none;" d="M2259 386L2259 387L2262 387L2259 386z"/>
<path style="fill:#0c594d; stroke:none;" d="M270 399L271 400L270 399z"/>
<path style="fill:#019c84; stroke:none;" d="M270 423L271 423L271 400L338 400C324.879 394.494 301.3 399 287 399C283.214 399 273.657 397.284 271.028 400.603C267.638 404.883 270 417.679 270 423z"/>
<path style="fill:#01fed6; stroke:none;" d="M271 400L271 423L340 423L339 399C318.223 403.947 292.36 400 271 400z"/>
<path style="fill:#019c84; stroke:none;" d="M339 399L340 400L339 399z"/>
<path style="fill:#17483f; stroke:none;" d="M340 399L341 400L340 399z"/>
<path style="fill:#0c594d; stroke:none;" d="M340 400L340 423L341 423L340 400z"/>
<path style="fill:#17483f; stroke:none;" d="M270 423L271 424L270 423z"/>
<path style="fill:#0c594d; stroke:none;" d="M271 423L271 424L340 424L318 423L271 423z"/>
<path style="fill:#019c84; stroke:none;" d="M13 454L13 455L44 455L44 486L45 486L45 454L13 454z"/>
<path style="fill:#01fed6; stroke:none;" d="M13 455L13 486L44 486L44 455L13 455z"/>
<path style="fill:#17483f; stroke:none;" d="M2832 481L2832 513L2864 513L2864 481L2832 481M103 506L103 507L145 507C134.012 502.389 114.957 506 103 506z"/>
<path style="fill:#0c594d; stroke:none;" d="M103 507L104 508L103 507z"/>
<path style="fill:#019c84; stroke:none;" d="M103 508L103 536L104.028 547.397L122 549L143.397 547.972L145 537L145 507L103 508z"/>
<path style="fill:#0c594d; stroke:none;" d="M145 507L144 549L145 549C147.832 539.419 148.875 516.235 145 507M103 510L104 511L103 510M2021 557L2022 557L2022 513L2037 513C2033.77 511.645 2024.55 510.424 2022.03 513.603C2019.82 516.385 2021 522.672 2021 526L2021 557z"/>
<path style="fill:#17483f; stroke:none;" d="M2408 512L2408 534L2472 534L2472 512L2408 512z"/>
<path style="fill:#01fed6; stroke:none;" d="M2022 513L2022 557L2037 557L2037 513L2022 513z"/>
<path style="fill:#0c594d; stroke:none;" d="M893 527L894 528L893 527z"/>
<path style="fill:#019c84; stroke:none;" d="M893 570L935 570L935 569L894 569L894 528L935 528L904 527L894.028 528.603L893 540L893 570z"/>
<path style="fill:#17483f; stroke:none;" d="M935 527L936 528L935 527z"/>
<path style="fill:#01fed6; stroke:none;" d="M894 528L894 569L935 569L935 528L894 528z"/>
<path style="fill:#0c594d; stroke:none;" d="M935 528L935 569L936 569C936 557.304 939.511 538.75 935 528M103 548L104 549L103 548z"/>
<path style="fill:#17483f; stroke:none;" d="M145 548L146 549L145 548M388 561L388 593C393.98 593 415.137 596.239 418.972 591.397C423.357 585.861 419.836 568.053 420 561L388 561z"/>
<path style="fill:#0c594d; stroke:none;" d="M417 565L418 566L417 565z"/>
<path style="fill:#17483f; stroke:none;" d="M935 569L936 570L935 569M992 598L992 599L1027 599L992 598z"/>
<path style="fill:#019c84; stroke:none;" d="M992 599L992 634L1027 634L1027 599L992 599z"/>
<path style="fill:#0c594d; stroke:none;" d="M1027 599L1027 634L1028 634L1027 599z"/>
<path style="fill:#17483f; stroke:none;" d="M1834 624L1834 669L1878 669L1878 624L1834 624M992 634L992 635L1027 635L992 634z"/>
<path style="fill:#019c84; stroke:none;" d="M712 647L712 670L713 670L713 648L782 648L760 647L712 647z"/>
<path style="fill:#01fed6; stroke:none;" d="M713 648L712 671L782 671L782 648L713 648z"/>
<path style="fill:#019c84; stroke:none;" d="M1570 664L1570 678L1652 678L1652 664L1570 664z"/>
<path style="fill:#0c594d; stroke:none;" d="M1652 664L1652 678L1570 678L1570 679L1627 679C1633.38 679 1644.91 681.237 1650.68 678.397C1654.64 676.447 1653.37 667.26 1652 664M712 671L713 672L712 671z"/>
<path style="fill:#019c84; stroke:none;" d="M713 671L713 672L782 672L760 671L713 671z"/>
<path style="fill:#0c594d; stroke:none;" d="M2622 674L2622 728L2623 728L2623 692L2622 674z"/>
<path style="fill:#01fed6; stroke:none;" d="M2623 674L2623 728L2677 728L2677 674L2623 674z"/>
<path style="fill:#019c84; stroke:none;" d="M2677 674L2677 728L2623 728L2623 729L2662 729C2665.73 729 2673.3 730.423 2676.4 727.972C2679.35 725.632 2678 718.316 2678 715C2678 703.318 2681.51 684.743 2677 674z"/>
<path style="fill:#17483f; stroke:none;" d="M1652 678L1653 679L1652 678z"/>
<path style="fill:#019c84; stroke:none;" d="M2626 678L2626 711L2627.03 723.397L2639 725L2674 725L2674 678L2673 678L2673 724L2627 724C2627 710.996 2631.01 689.939 2626 678z"/>
<path style="fill:#1d1d1d; stroke:none;" d="M2627 678L2627 724L2673 724L2673 678L2627 678z"/>
<path style="fill:#0c594d; stroke:none;" d="M760 707L761 708L760 707z"/>
<path style="fill:#019c84; stroke:none;" d="M760 781L761 781L761 708L824 708C811.593 702.794 789.515 707 776 707C772.367 707 763.565 705.4 761.028 708.603C757.99 712.439 760 723.295 760 728L760 781z"/>
<path style="fill:#01fed6; stroke:none;" d="M761 708L761 781L834 781L834 708L761 708z"/>
<path style="fill:#019c84; stroke:none;" d="M825 707L825 708L834 708L825 707z"/>
<path style="fill:#17483f; stroke:none;" d="M834 707L835 708L834 707z"/>
<path style="fill:#0c594d; stroke:none;" d="M2205 707L2205 734L2206 734L2205 707z"/>
<path style="fill:#01fed6; stroke:none;" d="M2206 707L2206 733L2232 733L2232 707L2206 707z"/>
<path style="fill:#019c84; stroke:none;" d="M2232 707L2232 733L2206 733L2206 734C2212.66 734 2224.68 736.351 2230.68 733.397C2235.4 731.074 2233.77 711.223 2232 707z"/>
<path style="fill:#0c594d; stroke:none;" d="M834 708L834 781L835 781L835 731L834 708z"/>
<path style="fill:#019c84; stroke:none;" d="M764 711L764 777L765 777L765 732L764 711z"/>
<path style="fill:#0c594d; stroke:none;" d="M765 711L765 712L828 712L808 711L765 711z"/>
<path style="fill:#17483f; stroke:none;" d="M828 711L829 712L828 711z"/>
<path style="fill:#0c594d; stroke:none;" d="M829 711L830 712L829 711z"/>
<path style="fill:#1d1d1d; stroke:none;" d="M765 712L765 777L830 777L830 712L765 712z"/>
<path style="fill:#019c84; stroke:none;" d="M830 712L830 777L831 777L831 733L830 712z"/>
<path style="fill:#17483f; stroke:none;" d="M861 716L862 717L861 716z"/>
<path style="fill:#019c84; stroke:none;" d="M862 716L862 717L893 717L893 747L862 747C867.054 749.121 887.93 750.51 892.397 746.972C895.747 744.318 895.747 719.682 892.397 717.028C886.997 712.751 868.823 716 862 716z"/>
<path style="fill:#0c594d; stroke:none;" d="M893 716L894 717L893 716M861 717L861 747L862 747L861 717z"/>
<path style="fill:#01fed6; stroke:none;" d="M862 717L862 747L893 747L893 717L862 717z"/>
<path style="fill:#019c84; stroke:none;" d="M1973 727L1973 747L1974 747L1973 727z"/>
<path style="fill:#01fed6; stroke:none;" d="M1974 727L1974 747L1993 747L1993 727L1974 727z"/>
<path style="fill:#019c84; stroke:none;" d="M1993 727L1993 747L1994 747L1993 727z"/>
<path style="fill:#17483f; stroke:none;" d="M2622 728L2623 729L2622 728z"/>
<path style="fill:#0c594d; stroke:none;" d="M2677 728L2678 729L2677 728M2232 733L2233 734L2232 733z"/>
<path style="fill:#17483f; stroke:none;" d="M861 747L862 748L861 747z"/>
<path style="fill:#0c594d; stroke:none;" d="M893 747L894 748L893 747z"/>
<path style="fill:#17483f; stroke:none;" d="M1973 747L1974 748L1973 747z"/>
<path style="fill:#0c594d; stroke:none;" d="M1974 747L1974 748L1993 748L1974 747z"/>
<path style="fill:#17483f; stroke:none;" d="M1993 747L1994 748L1993 747M953 776L954 777L953 776z"/>
<path style="fill:#019c84; stroke:none;" d="M954 776L954 777L992 777C981.964 772.789 964.911 776 954 776z"/>
<path style="fill:#17483f; stroke:none;" d="M992 776L993 777L992 776z"/>
<path style="fill:#0c594d; stroke:none;" d="M953 777L953 818L954 818C954 806.304 957.511 787.75 953 777z"/>
<path style="fill:#01fed6; stroke:none;" d="M954 777L954 818L992 818L992 777L954 777z"/>
<path style="fill:#0c594d; stroke:none;" d="M992 777L992 817L993 817C993 805.566 996.411 787.512 992 777z"/>
<path style="fill:#019c84; stroke:none;" d="M1849 785C1849 790.51 1846.53 803.975 1850.03 808.397C1852.53 811.556 1872.47 811.556 1874.97 808.397C1877.17 805.615 1876 799.328 1876 796C1876 793.197 1876.92 788.025 1874.4 786.028C1869.69 782.303 1854.89 785 1849 785z"/>
<path style="fill:#0c594d; stroke:none;" d="M1875 785L1876 786L1875 785z"/>
<path style="fill:#01fed6; stroke:none;" d="M1850 786L1850 809L1875 809L1875 786L1850 786z"/>
<path style="fill:#0c594d; stroke:none;" d="M1849 809L1850 810L1849 809M1875 809L1876 810L1875 809z"/>
<path style="fill:#019c84; stroke:none;" d="M2045 809L2045 832L2066 832L2066 831L2046 831L2046 810L2067 810L2067 831C2068.61 827.154 2070.14 811.799 2065.68 809.603C2060.55 807.076 2050.68 809 2045 809z"/>
<path style="fill:#0c594d; stroke:none;" d="M2067 809L2068 810L2067 809z"/>
<path style="fill:#01fed6; stroke:none;" d="M2046 810L2046 831L2067 832L2067 810L2046 810z"/>
<path style="fill:#17483f; stroke:none;" d="M992 817L993 818L992 817z"/>
<path style="fill:#0c594d; stroke:none;" d="M2067 831L2068 832L2067 831M2042 850L2043 851L2042 850z"/>
<path style="fill:#019c84; stroke:none;" d="M2042 893L2088 893L2088 850L2055 850L2043.03 851.603L2042 863L2042 893z"/>
<path style="fill:#0c594d; stroke:none;" d="M2088 850L2088 893L2042 893L2042 894L2073 894L2086.68 893.397L2089 883L2088 850z"/>
<path style="fill:#17483f; stroke:none;" d="M1407 882L1408 883L1407 882z"/>
<path style="fill:#0c594d; stroke:none;" d="M1408 882L1408 883L1471 883L1471 905C1472.63 901.113 1474.08 885.944 1470.4 883.028C1466.85 880.221 1457.32 882 1453 882L1408 882z"/>
<path style="fill:#019c84; stroke:none;" d="M1407 883L1408.03 903.397L1424 905L1469 905L1469 904L1408 904L1407 883z"/>
<path style="fill:#01fed6; stroke:none;" d="M1408 883L1408 904C1427.53 904 1451 900.475 1470 905L1471 883L1408 883z"/>
<path style="fill:#019c84; stroke:none;" d="M2009 886L2009 937L2010 937L2010 887L2018 887L2009 886z"/>
<path style="fill:#17483f; stroke:none;" d="M2018 886L2019 887L2018 886z"/>
<path style="fill:#01fed6; stroke:none;" d="M2010 887L2010 937L2017 937C2021.35 922.293 2018 902.347 2018 887L2010 887z"/>
<path style="fill:#0c594d; stroke:none;" d="M2018 887L2018 936L2019 936C2019 922.212 2023.31 899.652 2018 887z"/>
<path style="fill:#17483f; stroke:none;" d="M2088 893L2089 894L2088 893z"/>
<path style="fill:#0c594d; stroke:none;" d="M1407 904L1408 905L1407 904z"/>
<path style="fill:#019c84; stroke:none;" d="M1470 904L1471 905L1470 904M180 911L180 925L260 925L260 911L180 911z"/>
<path style="fill:#0c594d; stroke:none;" d="M260 911L260 925L261 925L260 911z"/>
<path style="fill:#019c84; stroke:none;" d="M2011 936L2011 937L2016 937L2011 936M2017 936L2018 937L2017 936z"/>
<path style="fill:#17483f; stroke:none;" d="M2018 936L2019 937L2018 936z"/>
<path style="fill:#0c594d; stroke:none;" d="M2134 962L2135 963L2134 962z"/>
<path style="fill:#019c84; stroke:none;" d="M2155 985L2155 984L2135 984L2135 963L2156 963L2156 985L2157 985L2157 962C2151.87 962 2139.74 959.751 2135.6 963.028C2132.44 965.534 2132.54 982.54 2136.32 984.397C2141.02 986.709 2149.82 985 2155 985z"/>
<path style="fill:#01fed6; stroke:none;" d="M2135 963L2135 984L2156 985L2156 963L2135 963z"/>
<path style="fill:#17483f; stroke:none;" d="M2712 965L2712 997L2744 997L2744 965L2712 965z"/>
<path style="fill:#0c594d; stroke:none;" d="M2134 984L2135 985L2134 984z"/>
<path style="fill:#17483f; stroke:none;" d="M1491 1003L1491 1042L1530 1042L1530 1015L1528.97 1004.6L1519 1003L1491 1003M2193 1009L2193 1036L2220 1036L2220 1009L2193 1009z"/>
<path style="fill:#019c84; stroke:none;" d="M648 1039L648 1114L649 1114L649 1040L719 1040L697 1039L648 1039z"/>
<path style="fill:#01fed6; stroke:none;" d="M649 1040C649 1063.49 653.439 1092.16 648 1115L719 1115L719 1040L649 1040z"/>
<path style="fill:#0c594d; stroke:none;" d="M2023 1040L2024 1041L2023 1040z"/>
<path style="fill:#019c84; stroke:none;" d="M2023 1088L2024 1088L2024 1041L2073 1041L2073 1087L2074 1053L2072.97 1041.6L2063 1040L2035 1040L2024.03 1041.6L2023 1054L2023 1088z"/>
<path style="fill:#0c594d; stroke:none;" d="M2073 1040L2074 1041L2073 1040z"/>
<path style="fill:#01fed6; stroke:none;" d="M2024 1041L2024 1088C2037.51 1084.78 2059.49 1084.78 2073 1088L2073 1041L2024 1041z"/>
<path style="fill:#019c84; stroke:none;" d="M2027 1044L2027 1045L2069 1045L2069 1084L2070 1084L2070 1044L2027 1044z"/>
<path style="fill:#0c594d; stroke:none;" d="M2027 1045L2027 1072L2028.03 1082.4L2039 1084L2069 1084L2069 1083L2028 1083C2028 1072.09 2031.21 1055.04 2027 1045z"/>
<path style="fill:#1d1d1d; stroke:none;" d="M2028 1045L2028 1083L2069 1083L2069 1045L2028 1045z"/>
<path style="fill:#0c594d; stroke:none;" d="M260 1053L261 1054L260 1053z"/>
<path style="fill:#019c84; stroke:none;" d="M260 1096L301 1096L301 1095L261 1095L261 1054L302 1054L271 1053L261.028 1054.6L260 1066L260 1096z"/>
<path style="fill:#17483f; stroke:none;" d="M302 1053L303 1054L302 1053z"/>
<path style="fill:#01fed6; stroke:none;" d="M261 1054L261 1095L302 1096L302 1054L261 1054z"/>
<path style="fill:#0c594d; stroke:none;" d="M302 1054L302 1095L303 1095C303 1083.3 306.511 1064.75 302 1054z"/>
<path style="fill:#019c84; stroke:none;" d="M2027 1083L2028 1084L2027 1083M2025 1087L2025 1088L2072 1088C2059.82 1082.89 2038.27 1087 2025 1087z"/>
<path style="fill:#0c594d; stroke:none;" d="M2073 1087L2074 1088L2073 1087z"/>
<path style="fill:#17483f; stroke:none;" d="M302 1095L303 1096L302 1095z"/>
<path style="fill:#0c594d; stroke:none;" d="M1424 1095L1424 1124L1425 1124L1424 1095z"/>
<path style="fill:#01fed6; stroke:none;" d="M1425 1095L1425 1124L1453 1124L1453 1095L1425 1095z"/>
<path style="fill:#019c84; stroke:none;" d="M1453 1095L1453 1124L1454 1124L1453 1095z"/>
<path style="fill:#17483f; stroke:none;" d="M1111 1146L1111 1185L1139 1185L1148.97 1183.4L1150 1173L1150 1147L1111 1146z"/>
<path style="fill:#019c84; stroke:none;" d="M1421 1149L1421 1220L1422 1220L1422 1150L1488 1150L1467 1149L1421 1149z"/>
<path style="fill:#01fed6; stroke:none;" d="M1422 1150L1422 1220L1488 1220L1488 1150L1422 1150z"/>
<path style="fill:#0c594d; stroke:none;" d="M186 1153L187 1154L186 1153z"/>
<path style="fill:#019c84; stroke:none;" d="M187.564 1154.05L186 1169L187.028 1187.4L194 1189L219.397 1187.97L221 1173L219.972 1154.74L213 1153L187.564 1154.05z"/>
<path style="fill:#0c594d; stroke:none;" d="M191 1153L192 1154L191 1153M219.667 1153.33L220.333 1153.67L219.667 1153.33z"/>
<path style="fill:#17483f; stroke:none;" d="M221 1153L221 1189L222 1189C222 1178.61 225.011 1162.56 221 1153z"/>
<path style="fill:#019c84; stroke:none;" d="M1425 1153L1426 1154L1425 1153z"/>
<path style="fill:#0c594d; stroke:none;" d="M1425 1216L1426 1216L1426 1154L1484 1154C1472.54 1149.19 1452.47 1153 1440 1153C1436.52 1153 1428.47 1151.52 1426.03 1154.6C1423.34 1158 1425 1166.87 1425 1171L1425 1216z"/>
<path style="fill:#1d1d1d; stroke:none;" d="M1426 1154L1426 1216L1484 1216L1484 1154L1426 1154z"/>
<path style="fill:#0c594d; stroke:none;" d="M1263 1184L1264 1185L1263 1184z"/>
<path style="fill:#019c84; stroke:none;" d="M1264.6 1185.03C1259.87 1188.78 1263 1209.2 1263 1215L1263 1240C1263 1242.91 1262.09 1247.95 1264.03 1250.4C1266.47 1253.48 1274.52 1252 1278 1252L1312 1252C1315.53 1252 1322.46 1253.3 1325.4 1250.97C1330.13 1247.22 1327 1226.8 1327 1221L1327 1196C1327 1193.09 1327.91 1188.05 1325.97 1185.6C1323.53 1182.52 1315.48 1184 1312 1184L1278 1184C1274.47 1184 1267.54 1182.7 1264.6 1185.03z"/>
<path style="fill:#0c594d; stroke:none;" d="M1326 1184L1327 1185L1326 1184z"/>
<path style="fill:#01fed6; stroke:none;" d="M1264 1185L1264 1251L1326 1251L1326 1185L1264 1185z"/>
<path style="fill:#0c594d; stroke:none;" d="M186 1188L187 1189L186 1188M220 1188L221 1189L220 1188z"/>
<path style="fill:#019c84; stroke:none;" d="M1426 1216L1426 1217L1483 1217L1465 1216L1426 1216z"/>
<path style="fill:#01fed6; stroke:none;" d="M1203 1218L1203 1247L1232 1247L1232 1218L1203 1218z"/>
<path style="fill:#17483f; stroke:none;" d="M1421 1220L1422 1221L1421 1220z"/>
<path style="fill:#0c594d; stroke:none;" d="M1422 1220L1422 1221L1488 1221L1467 1220L1422 1220M186 1224L186 1225L255 1225L233 1224L186 1224z"/>
<path style="fill:#01fed6; stroke:none;" d="M186 1225L186 1298L231 1298L255 1297C249.999 1275.99 252.958 1247.42 255 1226L231 1225L186 1225z"/>
<path style="fill:#019c84; stroke:none;" d="M254 1225L255 1226L254 1225M254.333 1227.67L254.667 1228.33L254.333 1227.67M254 1231L254 1296L255 1296L255 1252L254 1231z"/>
<path style="fill:#0c594d; stroke:none;" d="M1263 1251L1264 1252L1263 1251M1326 1251L1327 1252L1326 1251z"/>
<path style="fill:#019c84; stroke:none;" d="M6 1259L6 1260L78 1260L78 1337L79 1318L79 1278L77.3966 1260.03L58 1259L6 1259z"/>
<path style="fill:#0c594d; stroke:none;" d="M78 1259L79 1260L78 1259z"/>
<path style="fill:#01fed6; stroke:none;" d="M6 1260L6 1336C28.5792 1336 56.0412 1331.77 78 1337L78 1260L6 1260z"/>
<path style="fill:#0c594d; stroke:none;" d="M2557 1262L2557 1263L2630 1263L2607 1262L2557 1262z"/>
<path style="fill:#019c84; stroke:none;" d="M10 1263L10 1264L75 1264L54 1263L10 1263z"/>
<path style="fill:#17483f; stroke:none;" d="M2556 1263L2556 1275L2557 1275L2556 1263z"/>
<path style="fill:#019c84; stroke:none;" d="M2557 1263L2557 1275L2630 1275L2630 1263L2557 1263z"/>
<path style="fill:#17483f; stroke:none;" d="M2630 1263L2630 1275L2631 1275L2630 1263z"/>
<path style="fill:#1d1d1d; stroke:none;" d="M10 1264L10 1332L74 1332L74 1264L10 1264z"/>
<path style="fill:#0c594d; stroke:none;" d="M74 1264L74 1332L10 1332L10 1333L56 1333L73.3966 1331.97L75 1316L75 1281L74 1264z"/>
<path style="fill:#17483f; stroke:none;" d="M936 1268L936 1281L1009 1281L1009 1268L936 1268z"/>
<path style="fill:#0c594d; stroke:none;" d="M2557 1275L2557 1276L2630 1276L2607 1275L2557 1275z"/>
<path style="fill:#17483f; stroke:none;" d="M1381 1303L1381 1280L1340 1280C1333.98 1280 1325.94 1278.6 1320.15 1280.32C1315.52 1281.69 1315.12 1299.21 1318.6 1301.97C1322.15 1304.78 1331.68 1303 1336 1303L1381 1303z"/>
<path style="fill:#019c84; stroke:none;" d="M254 1297L255 1298L254 1297z"/>
<path style="fill:#0c594d; stroke:none;" d="M186 1298L186 1299L254 1299L232 1298L186 1298z"/>
<path style="fill:#17483f; stroke:none;" d="M254 1298L255 1299L254 1298z"/>
<path style="fill:#0c594d; stroke:none;" d="M991 1378L992 1378L992 1312L1054 1312C1041.83 1306.89 1020.25 1311 1007 1311C1003.37 1311 994.565 1309.4 992.028 1312.6C989.221 1316.15 991 1325.68 991 1330L991 1378z"/>
<path style="fill:#17483f; stroke:none;" d="M1054 1311L1055 1312L1054 1311z"/>
<path style="fill:#019c84; stroke:none;" d="M764 1312C764 1319.01 760.642 1337.86 765.028 1343.4C766.891 1345.75 771.383 1345 774 1345L797 1345L797 1344L765 1344L764 1312z"/>
<path style="fill:#01fed6; stroke:none;" d="M765 1312L765 1344L797 1344L797 1312L765 1312M992 1312L992 1379L1037 1379L1053.17 1377.97L1054 1361L1054 1312L992 1312z"/>
<path style="fill:#019c84; stroke:none;" d="M1054 1312L1054 1376L1055 1376L1055 1332L1054 1312z"/>
<path style="fill:#0c594d; stroke:none;" d="M513 1362L514 1362L514 1316L560 1316L525 1315L514.028 1316.6L513 1329L513 1362z"/>
<path style="fill:#17483f; stroke:none;" d="M560 1315L561 1316L560 1315z"/>
<path style="fill:#01fed6; stroke:none;" d="M514 1316L514 1362C528.471 1362 547.128 1365.1 561 1361C558.07 1348.69 558.07 1329.31 561 1317C547.128 1312.9 528.471 1316 514 1316z"/>
<path style="fill:#019c84; stroke:none;" d="M560 1316L561 1317L560 1316M560 1318L560 1360L561 1360C561 1348.04 564.611 1328.99 560 1318M517 1358L518 1358L518 1320L556 1320C548.124 1316.69 535.531 1319 527 1319C524.124 1319 519.158 1318.16 517.603 1321.32C513.378 1329.9 517 1348.41 517 1358z"/>
<path style="fill:#1d1d1d; stroke:none;" d="M518 1320L518 1358L556 1358L556 1320L518 1320z"/>
<path style="fill:#0c594d; stroke:none;" d="M556 1320L556 1358L518 1358L518 1359L545 1359L555.397 1357.97L557 1349L556 1320z"/>
<path style="fill:#01fed6; stroke:none;" d="M1082 1331L1082 1360L1111 1360L1111 1331L1082 1331z"/>
<path style="fill:#019c84; stroke:none;" d="M74 1332L75 1333L74 1332M6 1336L6 1337L77 1337L55 1336L6 1336z"/>
<path style="fill:#0c594d; stroke:none;" d="M764 1344L765 1345L764 1344z"/>
<path style="fill:#01fed6; stroke:none;" d="M2790 1353L2790 1392C2800.86 1389.41 2817.14 1389.41 2828 1392L2828 1353L2790 1353z"/>
<path style="fill:#019c84; stroke:none;" d="M2828 1353L2828 1391L2829 1391C2829 1380.09 2832.21 1363.04 2828 1353M556 1358L557 1359L556 1358M560 1361C546.406 1365.02 528.179 1362 514 1362L514 1363L550 1363L560 1361z"/>
<path style="fill:#17483f; stroke:none;" d="M513 1362L514 1363L513 1362z"/>
<path style="fill:#0c594d; stroke:none;" d="M65 1373L66 1374L65 1373z"/>
<path style="fill:#019c84; stroke:none;" d="M145 1387L145 1373L83 1373C74.576 1373 61.4542 1370.83 65.3179 1383.85C66.9246 1389.27 79.6042 1387 84 1387L145 1387z"/>
<path style="fill:#0c594d; stroke:none;" d="M145 1373L145 1387L146 1387L145 1373z"/>
<path style="fill:#019c84; stroke:none;" d="M1961 1374L1961 1375L2003 1375C1992.01 1370.39 1972.96 1374 1961 1374z"/>
<path style="fill:#0c594d; stroke:none;" d="M2003 1374L2004 1375L2003 1374z"/>
<path style="fill:#01fed6; stroke:none;" d="M1961 1375L1961 1417L2004 1417C2001.18 1405.17 2001.18 1386.83 2004 1375L1961 1375z"/>
<path style="fill:#019c84; stroke:none;" d="M2003 1376L2003 1416L2004 1416C2004 1404.57 2007.41 1386.51 2003 1376M1054.33 1377.67L1054.67 1378.33L1054.33 1377.67z"/>
<path style="fill:#17483f; stroke:none;" d="M991 1378L992 1379L991 1378M1165 1378L1165 1379L1203 1379L1203 1417C1206.31 1409.12 1204 1396.53 1204 1388C1204 1385.12 1204.84 1380.16 1201.68 1378.6C1193.1 1374.38 1174.59 1378 1165 1378z"/>
<path style="fill:#0c594d; stroke:none;" d="M1164 1379L1164 1406L1165.03 1416.4L1175 1418L1203 1418L1203 1417L1165 1417C1165 1406.09 1168.21 1389.04 1164 1379z"/>
<path style="fill:#019c84; stroke:none;" d="M1165 1379L1165 1417L1203 1417L1203 1379L1165 1379M857 1382L858 1383L857 1382z"/>
<path style="fill:#01fed6; stroke:none;" d="M857 1383L858 1425L900 1425L900 1382L857 1383z"/>
<path style="fill:#019c84; stroke:none;" d="M900 1382L900 1425L901 1425C901 1412.78 904.711 1393.23 900 1382M857 1384L857 1425L858 1425C858 1413.3 861.511 1394.75 857 1384z"/>
<path style="fill:#0c594d; stroke:none;" d="M65 1386L66 1387L65 1386z"/>
<path style="fill:#019c84; stroke:none;" d="M2791 1391L2791 1392L2827 1392C2817.44 1387.99 2801.39 1391 2791 1391z"/>
<path style="fill:#0c594d; stroke:none;" d="M2828 1391L2829 1392L2828 1391z"/>
<path style="fill:#17483f; stroke:none;" d="M1164 1417L1165 1418L1164 1417z"/>
<path style="fill:#0c594d; stroke:none;" d="M1961 1417L1961 1418L2004 1418C1992.77 1413.29 1973.22 1417 1961 1417z"/>
<path style="fill:#17483f; stroke:none;" d="M857 1425L858 1426L857 1425z"/>
<path style="fill:#0c594d; stroke:none;" d="M858 1425L858 1426L900 1426C889.012 1421.39 869.957 1425 858 1425z"/>
<path style="fill:#17483f; stroke:none;" d="M900 1425L901 1426L900 1425M1424 1428L1425 1429L1424 1428z"/>
<path style="fill:#019c84; stroke:none;" d="M1425 1428L1425 1429L1453 1429L1453 1457L1425 1457L1425 1458C1431.26 1458 1447.41 1460.92 1452.4 1456.97C1457.05 1453.29 1454 1433.7 1454 1428L1425 1428z"/>
<path style="fill:#0c594d; stroke:none;" d="M1424 1429L1424 1457L1425 1457L1424 1429z"/>
<path style="fill:#01fed6; stroke:none;" d="M1425 1429L1425 1457L1453 1457L1453 1429L1425 1429z"/>
<path style="fill:#17483f; stroke:none;" d="M1424 1457L1425 1458L1424 1457z"/>
<path style="fill:#0c594d; stroke:none;" d="M1453 1457L1454 1458L1453 1457z"/>
<path style="fill:#17483f; stroke:none;" d="M2329 1508L2330 1509L2329 1508z"/>
<path style="fill:#0c594d; stroke:none;" d="M2330 1508L2330 1509L2368 1509C2357.96 1504.79 2340.91 1508 2330 1508z"/>
<path style="fill:#019c84; stroke:none;" d="M2329 1509L2329 1536L2330.03 1546.4L2340 1548L2368 1548L2368 1547L2330 1547C2330 1536.09 2333.21 1519.04 2329 1509z"/>
<path style="fill:#01fed6; stroke:none;" d="M2330 1509L2330 1547L2368 1547L2368 1509L2330 1509z"/>
<path style="fill:#0c594d; stroke:none;" d="M2329 1547L2330 1548L2329 1547z"/>
<path style="fill:#019c84; stroke:none;" d="M2722 1564L2722 1565L2754 1565L2754 1597L2755 1573L2752.68 1564.6L2722 1564z"/>
<path style="fill:#0c594d; stroke:none;" d="M2754 1564L2755 1565L2754 1564z"/>
<path style="fill:#01fed6; stroke:none;" d="M2722 1565L2722 1597L2754 1597L2754 1565L2722 1565z"/>
<path style="fill:#019c84; stroke:none;" d="M453 1566L453 1591L520 1591L520 1590L454 1590L453 1566z"/>
<path style="fill:#01fed6; stroke:none;" d="M454 1566L454 1590L507 1590L524.062 1589.2L525 1566L454 1566z"/>
<path style="fill:#019c84; stroke:none;" d="M521 1590L522 1591L521 1590M523.667 1590.33L524.333 1590.67L523.667 1590.33z"/>
<path style="fill:#17483f; stroke:none;" d="M1738 1601L1739 1602L1738 1601z"/>
<path style="fill:#0c594d; stroke:none;" d="M1739 1601L1739 1602L1777 1602C1766.96 1597.79 1749.91 1601 1739 1601z"/>
<path style="fill:#019c84; stroke:none;" d="M1738 1602L1738 1640L1739 1640C1739 1629.09 1742.21 1612.04 1738 1602z"/>
<path style="fill:#01fed6; stroke:none;" d="M1739 1602L1739 1640L1776 1640L1777 1603L1739 1602z"/>
<path style="fill:#019c84; stroke:none;" d="M1776 1602L1777 1603L1776 1602M1776 1605L1776 1640L1777 1640L1776 1605z"/>
<path style="fill:#17483f; stroke:none;" d="M2722 1630L2722 1697L2785 1697L2785 1630L2722 1630M779 1645L780 1646L779 1645z"/>
<path style="fill:#0c594d; stroke:none;" d="M780 1645L780 1646L863 1646L837 1645L780 1645z"/>
<path style="fill:#17483f; stroke:none;" d="M863 1645L864 1646L863 1645z"/>
<path style="fill:#019c84; stroke:none;" d="M779 1646L780.028 1673.4L801 1675L864 1675L864 1647L863 1647L863 1674L780 1674L779 1646z"/>
<path style="fill:#01fed6; stroke:none;" d="M780 1646L780 1674L863 1674L864 1646L780 1646z"/>
<path style="fill:#17483f; stroke:none;" d="M2557 1661L2558 1662L2557 1661z"/>
<path style="fill:#0c594d; stroke:none;" d="M2557 1662L2557 1663C2577.48 1658.12 2602.95 1662 2624 1662C2618.54 1659.71 2610.89 1661 2605 1661C2590.24 1661 2571.15 1657.82 2557 1662z"/>
<path style="fill:#019c84; stroke:none;" d="M2624 1732L2624 1662L2576 1662C2571.68 1662 2562.15 1660.22 2558.6 1663.03C2555.52 1665.47 2557 1673.52 2557 1677L2557 1716C2557 1719.73 2555.24 1729.39 2559.32 1731.4C2564 1733.7 2572.85 1732 2578 1732L2624 1732z"/>
<path style="fill:#0c594d; stroke:none;" d="M2561 1665L2561 1666L2620 1666L2601 1665L2561 1665z"/>
<path style="fill:#17483f; stroke:none;" d="M2561 1666L2561 1728L2562 1728L2562 1686L2561 1666z"/>
<path style="fill:#1d1d1d; stroke:none;" d="M2562 1666L2562 1728L2620 1728L2620 1666L2562 1666z"/>
<path style="fill:#0c594d; stroke:none;" d="M779 1674L780 1675L779 1674M1168 1676L1169 1677L1168 1676z"/>
<path style="fill:#019c84; stroke:none;" d="M1168 1730L1169 1730L1169 1677L1218 1677L1218 1730L1219 1730L1219 1676L1183 1676L1169.6 1677.03L1168 1691L1168 1730z"/>
<path style="fill:#01fed6; stroke:none;" d="M1169 1677L1169 1730L1218 1730L1218 1677L1169 1677z"/>
<path style="fill:#019c84; stroke:none;" d="M1172 1680L1172 1726L1173 1726C1173 1713 1177.01 1691.94 1172 1680z"/>
<path style="fill:#17483f; stroke:none;" d="M1173 1680L1174 1681L1173 1680z"/>
<path style="fill:#0c594d; stroke:none;" d="M1174 1680L1174 1681L1214 1681L1214 1726L1215 1692L1213.4 1681.03L1202 1680L1174 1680z"/>
<path style="fill:#019c84; stroke:none;" d="M1214 1680L1215 1681L1214 1680z"/>
<path style="fill:#1d1d1d; stroke:none;" d="M1173 1681L1173 1726L1214 1726L1214 1681L1173 1681z"/>
<path style="fill:#0c594d; stroke:none;" d="M2124 1698L2124 1699L2188 1699L2168 1698L2124 1698z"/>
<path style="fill:#019c84; stroke:none;" d="M2124 1699L2124 1720L2188 1720L2188 1699L2124 1699z"/>
<path style="fill:#0c594d; stroke:none;" d="M2187 1703L2188 1704L2187 1703M2124 1720L2124 1721L2187 1721L2167 1720L2124 1720z"/>
<path style="fill:#17483f; stroke:none;" d="M2187 1720L2188 1721L2187 1720z"/>
<path style="fill:#0c594d; stroke:none;" d="M2561 1728L2561 1729L2620 1729L2601 1728L2561 1728M2557 1731C2560.41 1734.9 2570.1 1733 2575 1733L2624 1733L2624 1732C2602.95 1732 2577.48 1735.88 2557 1731z"/>
<path style="fill:#01fed6; stroke:none;" d="M2420 1734L2420 1766L2452 1766L2452 1734L2420 1734z"/>
<path style="fill:#019c84; stroke:none;" d="M2452 1734L2452 1766L2453 1766L2452 1734z"/>
<path style="fill:#17483f; stroke:none;" d="M1372 1753L1372 1770L1442 1770L1467.4 1768.97L1469 1753L1372 1753z"/>
<path style="fill:#0c594d; stroke:none;" d="M2611 1765L2612 1766L2611 1765z"/>
<path style="fill:#019c84; stroke:none;" d="M2611 1778L2612 1778L2612 1766L2685 1766L2667 1765L2630 1765L2612.6 1766.03L2611 1778z"/>
<path style="fill:#0c594d; stroke:none;" d="M2420 1766L2420 1767L2452 1767L2420 1766z"/>
<path style="fill:#17483f; stroke:none;" d="M2452 1766L2453 1767L2452 1766z"/>
<path style="fill:#01fed6; stroke:none;" d="M2612 1766L2612 1778L2685 1778L2685 1766L2612 1766z"/>
<path style="fill:#17483f; stroke:none;" d="M2611 1778L2612 1779L2611 1778z"/>
<path style="fill:#0c594d; stroke:none;" d="M2612 1778L2612 1779L2685 1779L2662 1778L2612 1778z"/>
<path style="fill:#17483f; stroke:none;" d="M339 1784L339 1785L371 1785L339 1784z"/>
<path style="fill:#0c594d; stroke:none;" d="M338 1785L338 1817L339 1817L338 1785z"/>
<path style="fill:#019c84; stroke:none;" d="M339 1785L339 1817L371 1817L371 1785L339 1785z"/>
<path style="fill:#17483f; stroke:none;" d="M2380 1801L2381 1802L2380 1801z"/>
<path style="fill:#019c84; stroke:none;" d="M2381 1801L2382 1802L2381 1801z"/>
<path style="fill:#01fed6; stroke:none;" d="M2382 1801L2381 1830L2409 1830L2409 1802L2382 1801z"/>
<path style="fill:#019c84; stroke:none;" d="M2383 1801L2383 1802L2409 1802L2409 1830L2410 1830L2410 1801L2383 1801z"/>
<path style="fill:#0c594d; stroke:none;" d="M2380 1802L2380 1830L2381 1830L2380 1802z"/>
<path style="fill:#17483f; stroke:none;" d="M339 1817L339 1818L371 1818L339 1817z"/>
<path style="fill:#019c84; stroke:none;" d="M620 1830L620 1872L621 1872C621 1860.04 624.611 1840.99 620 1830z"/>
<path style="fill:#01fed6; stroke:none;" d="M621 1830L620 1873L664 1873C661.127 1860.93 661.127 1842.07 664 1830L621 1830z"/>
<path style="fill:#0c594d; stroke:none;" d="M2381 1830L2381 1831L2409 1831L2381 1830z"/>
<path style="fill:#17483f; stroke:none;" d="M2409 1830L2410 1831L2409 1830z"/>
<path style="fill:#019c84; stroke:none;" d="M663 1831L663 1872L664 1872C664 1860.3 667.511 1841.75 663 1831z"/>
<path style="fill:#0c594d; stroke:none;" d="M2289 1899L2290 1899L2290 1835L2354 1835C2341.35 1829.69 2318.78 1834 2305 1834C2301.37 1834 2292.56 1832.4 2290.03 1835.6C2287.22 1839.15 2289 1848.68 2289 1853L2289 1899z"/>
<path style="fill:#01fed6; stroke:none;" d="M2290 1835L2290 1899L2354 1899L2354 1835L2290 1835z"/>
<path style="fill:#019c84; stroke:none;" d="M2465 1856L2465 1857L2500 1857L2465 1856z"/>
<path style="fill:#17483f; stroke:none;" d="M2500 1856L2501 1857L2500 1856z"/>
<path style="fill:#01fed6; stroke:none;" d="M2465 1857L2465 1894L2500 1894L2500 1857L2465 1857z"/>
<path style="fill:#0c594d; stroke:none;" d="M2500 1857L2500 1894L2501 1894C2501 1883.35 2504.11 1866.8 2500 1857z"/>
<path style="fill:#019c84; stroke:none;" d="M785 1871L785 1930L786.603 1949.97L806 1951L860 1951L860 1950L786 1950L786 1896L785 1871z"/>
<path style="fill:#01fed6; stroke:none;" d="M786 1871L786 1950L860 1950L860 1872C836.811 1872 808.549 1876.37 786 1871z"/>
<path style="fill:#019c84; stroke:none;" d="M787 1871L787 1872L860 1872L837 1871L787 1871z"/>
<path style="fill:#0c594d; stroke:none;" d="M620 1873L620 1874L663 1874C651.774 1869.29 632.219 1873 620 1873z"/>
<path style="fill:#17483f; stroke:none;" d="M663 1873L664 1874L663 1873z"/>
<path style="fill:#019c84; stroke:none;" d="M789 1875L790 1876L789 1875z"/>
<path style="fill:#0c594d; stroke:none;" d="M789 1946L790 1946L790 1876L856 1876C843.117 1870.59 820.038 1875 806 1875C802.214 1875 792.657 1873.28 790.028 1876.6C787.105 1880.29 789 1890.49 789 1895L789 1946z"/>
<path style="fill:#1d1d1d; stroke:none;" d="M790 1876L790 1946L856 1946L856 1876L790 1876z"/>
<path style="fill:#0c594d; stroke:none;" d="M724 1894L724 1895L756 1895L756 1927L757 1903L754.682 1894.6L724 1894z"/>
<path style="fill:#17483f; stroke:none;" d="M756 1894L757 1895L756 1894z"/>
<path style="fill:#019c84; stroke:none;" d="M2465 1894L2465 1895L2500 1895L2465 1894z"/>
<path style="fill:#17483f; stroke:none;" d="M2500 1894L2501 1895L2500 1894z"/>
<path style="fill:#019c84; stroke:none;" d="M724 1895L724 1927L756 1927L756 1895L724 1895M1468 1925L1468 1976L1519 1976L1519 1925L1468 1925z"/>
<path style="fill:#17483f; stroke:none;" d="M1519 1925L1519 1976L1520 1976C1520 1961.69 1524.51 1938.13 1519 1925M724 1927L724 1928L756 1928L724 1927z"/>
<path style="fill:#019c84; stroke:none;" d="M789 1946L789 1947L856 1947L835 1946L789 1946z"/>
<path style="fill:#0c594d; stroke:none;" d="M785 1950L786 1951L785 1950z"/>
<path style="fill:#019c84; stroke:none;" d="M420 1959L420 1960L491 1960L491 1983L421 1983L421 1984L492 1984L492 1959L420 1959z"/>
<path style="fill:#01fed6; stroke:none;" d="M420 1960L420 1984C441.663 1978.84 468.726 1983 491 1983L491 1960L420 1960z"/>
<path style="fill:#17483f; stroke:none;" d="M838 1998L921 1998L919.397 1984.03L901 1983L856 1983L839.603 1984.18L838 1998z"/>
</svg>
