<?xml version="1.0" standalone="no"?>
<!DOCTYPE svg PUBLIC "-//W3C//DTD SVG 20010904//EN"
 "http://www.w3.org/TR/2001/REC-SVG-20010904/DTD/svg10.dtd">
<svg version="1.0" xmlns="http://www.w3.org/2000/svg"
 width="512.000000pt" height="512.000000pt" viewBox="0 0 512.000000 512.000000"
 preserveAspectRatio="xMidYMid meet">

<g transform="translate(0.000000,512.000000) scale(0.100000,-0.100000)"
fill="#000000" stroke="none">
<path d="M982 4398 c-9 -9 -12 -71 -12 -220 0 -195 1 -208 19 -218 12 -6 94
-10 196 -10 175 0 176 0 201 25 l25 25 -3 184 c-4 245 15 226 -228 226 -131 0
-190 -4 -198 -12z"/>
<path d="M3726 4389 l-26 -20 0 -194 c0 -189 1 -194 22 -209 18 -13 56 -16
209 -16 167 0 188 2 202 18 15 16 17 46 17 218 0 142 -3 203 -12 212 -8 8 -67
12 -199 12 -173 0 -188 -1 -213 -21z"/>
<path d="M1436 3928 c-13 -18 -16 -57 -16 -215 0 -180 -1 -193 -19 -203 -12
-6 -99 -10 -213 -10 -138 0 -197 -3 -206 -12 -9 -9 -12 -69 -12 -208 0 -154
-3 -200 -14 -216 -13 -18 -30 -19 -223 -22 -138 -2 -216 -7 -232 -15 -43 -22
-51 -61 -51 -257 l0 -180 -191 0 -191 0 -34 -34 -34 -34 0 -647 0 -647 29 -29
30 -29 193 2 193 3 7 45 c3 25 7 224 7 443 1 369 2 398 19 405 9 4 120 7 245
7 192 0 229 -2 237 -15 6 -9 10 -187 10 -432 0 -365 2 -419 16 -432 13 -13 46
-16 204 -16 164 0 190 2 209 18 20 16 21 27 23 217 l3 200 1130 3 1130 2 18
-21 c15 -19 17 -45 17 -213 0 -136 4 -196 12 -204 9 -9 69 -12 209 -12 170 0
198 2 203 16 3 9 6 205 6 437 0 248 4 428 10 437 8 13 45 15 237 15 125 0 236
-3 246 -7 16 -7 17 -36 18 -405 0 -219 4 -418 7 -443 l7 -45 193 -3 193 -2 30
29 29 29 0 647 0 647 -34 34 -34 34 -209 0 c-149 0 -212 3 -221 12 -8 8 -12
68 -12 203 0 104 -3 200 -6 213 -6 22 -8 22 -195 22 -182 0 -234 7 -251 33 -4
7 -8 100 -8 207 0 139 -3 199 -12 208 -8 8 -68 12 -203 12 -156 0 -195 3 -213
16 -21 15 -22 20 -22 202 0 154 -3 192 -16 210 -15 21 -20 22 -208 22 -150 0
-196 -3 -212 -14 -17 -13 -19 -30 -22 -212 -2 -121 -7 -203 -14 -211 -15 -18
-1318 -19 -1336 -1 -8 8 -12 67 -12 199 0 173 -1 188 -21 213 l-20 26 -194 0
c-189 0 -194 -1 -209 -22z m420 -909 c17 -19 19 -41 22 -209 3 -163 1 -189
-13 -204 -15 -14 -43 -16 -228 -14 l-212 3 -3 196 c-1 114 2 208 8 223 l10 26
198 0 c189 0 200 -1 218 -21z m1833 -7 c8 -18 11 -93 9 -222 l-3 -195 -215 -3
c-193 -2 -216 -1 -227 15 -9 12 -13 68 -13 192 0 158 2 179 20 209 l20 32 199
0 199 0 11 -28z"/>
<path d="M1426 1164 c-14 -13 -16 -47 -16 -219 0 -199 0 -204 22 -219 19 -14
78 -16 436 -16 l413 0 24 25 c25 24 25 25 25 219 0 190 -1 195 -22 210 -19 14
-79 16 -445 16 -370 0 -423 -2 -437 -16z"/>
<path d="M3245 1170 c-236 -3 -436 -9 -442 -13 -10 -6 -13 -59 -13 -207 l0
-199 26 -20 c26 -20 37 -21 440 -21 l413 0 15 22 c13 18 16 57 16 213 0 182
-5 238 -19 233 -3 -2 -199 -5 -436 -8z"/>
</g>
</svg>
