<?xml version="1.0" standalone="no"?>
<!DOCTYPE svg PUBLIC "-//W3C//DTD SVG 20010904//EN"
 "http://www.w3.org/TR/2001/REC-SVG-20010904/DTD/svg10.dtd">
<svg version="1.0" xmlns="http://www.w3.org/2000/svg"
 width="512.000000pt" height="512.000000pt" viewBox="0 0 512.000000 512.000000"
 preserveAspectRatio="xMidYMid meet">

<g transform="translate(0.000000,512.000000) scale(0.100000,-0.100000)"
fill="#000000" stroke="none">
<path d="M2400 3760 l0 -720 -80 0 -80 0 0 560 0 560 -160 0 -160 0 0 -880 0
-880 -80 0 -80 0 0 -80 0 -80 -80 0 -80 0 0 80 0 80 -80 0 -80 0 0 80 0 80
-80 0 -80 0 0 80 0 80 -160 0 -160 0 0 -240 0 -240 80 0 80 0 0 -80 0 -80 80
0 80 0 0 -80 0 -80 80 0 80 0 0 -80 0 -80 80 0 80 0 0 -80 0 -80 80 0 80 0 0
-80 0 -80 160 0 160 0 0 -80 0 -80 -80 0 -80 0 0 -320 0 -320 80 0 80 0 0 -80
0 -80 720 0 720 0 0 80 0 80 80 0 80 0 0 320 0 320 -80 0 -80 0 0 80 0 80 80
0 80 0 0 1120 0 1120 -160 0 -160 0 0 -400 0 -400 -80 0 -80 0 0 640 0 640
-160 0 -160 0 0 -560 0 -560 -80 0 -80 0 0 720 0 720 -160 0 -160 0 0 -720z
m0 -2560 l0 -80 -160 0 -160 0 0 80 0 80 160 0 160 0 0 -80z m1120 0 l0 -80
-240 0 -240 0 0 80 0 80 240 0 240 0 0 -80z"/>
</g>
</svg>
