<?xml version="1.0" standalone="no"?>
<!DOCTYPE svg PUBLIC "-//W3C//DTD SVG 20010904//EN"
 "http://www.w3.org/TR/2001/REC-SVG-20010904/DTD/svg10.dtd">
<svg version="1.0" xmlns="http://www.w3.org/2000/svg"
 width="512.000000pt" height="512.000000pt" viewBox="0 0 512.000000 512.000000"
 preserveAspectRatio="xMidYMid meet">

<g transform="translate(0.000000,512.000000) scale(0.100000,-0.100000)"
fill="#000000" stroke="none">
<path d="M1580 4115 l0 -245 -245 0 -245 0 0 -220 0 -220 -275 0 -275 0 0
-270 0 -270 -270 0 -270 0 0 -765 0 -765 270 0 270 0 0 490 0 490 275 0 275 0
0 -245 0 -245 245 0 245 0 0 -245 0 -245 -245 0 -245 0 0 -300 0 -300 490 0
490 0 0 545 0 545 515 0 515 0 2 -542 3 -543 490 0 490 0 3 298 2 297 -245 0
-245 0 0 245 0 245 243 2 242 3 3 243 2 242 270 0 270 0 0 -490 0 -490 245 0
245 0 0 765 0 765 -245 0 -245 0 0 270 0 270 -270 0 -270 0 -2 218 -3 217
-242 3 -243 2 -2 243 -3 242 -245 0 -245 0 -3 -242 -2 -243 -515 0 -515 0 0
245 0 245 -245 0 -245 0 0 -245z m540 -1230 l0 -275 -270 0 -270 0 0 275 0
275 270 0 270 0 0 -275z m1530 0 l0 -275 -272 2 -273 3 -3 260 c-1 143 0 265
3 272 3 10 66 13 275 13 l270 0 0 -275z"/>
</g>
</svg>
