<?xml version="1.0" standalone="no"?>
<!DOCTYPE svg PUBLIC "-//W3C//DTD SVG 20010904//EN"
 "http://www.w3.org/TR/2001/REC-SVG-20010904/DTD/svg10.dtd">
<svg version="1.0" xmlns="http://www.w3.org/2000/svg"
 width="512.000000pt" height="512.000000pt" viewBox="0 0 512.000000 512.000000"
 preserveAspectRatio="xMidYMid meet">

<g transform="translate(0.000000,512.000000) scale(0.100000,-0.100000)"
fill="#000000" stroke="none">
<path d="M2560 3920 l0 -240 -80 0 -80 0 0 -240 0 -240 -80 0 -80 0 0 -80 0
-80 -80 0 -80 0 0 80 0 80 -80 0 -80 0 0 160 0 160 -80 0 -80 0 0 240 0 240
-160 0 -160 0 0 -240 0 -240 80 0 80 0 0 -240 0 -240 80 0 80 0 0 -160 0 -160
400 0 400 0 0 240 0 240 80 0 80 0 0 -320 0 -320 -480 0 -480 0 0 -80 0 -80
-80 0 -80 0 0 -80 0 -80 -80 0 -80 0 0 -240 0 -240 80 0 80 0 0 -160 0 -160
160 0 160 0 0 -80 0 -80 -80 0 -80 0 0 -320 0 -320 80 0 80 0 0 -80 0 -80 720
0 720 0 0 80 0 80 80 0 80 0 0 320 0 320 -80 0 -80 0 0 80 0 80 80 0 80 0 0
480 0 480 -160 0 -160 0 0 80 0 80 160 0 160 0 0 320 0 320 -160 0 -160 0 0
-320 0 -320 -80 0 -80 0 0 320 0 320 -160 0 -160 0 0 240 0 240 80 0 80 0 0
240 0 240 -160 0 -160 0 0 -240z m480 -1440 l0 -80 -80 0 -80 0 0 -80 0 -80
-80 0 -80 0 0 -80 0 -80 -320 0 -320 0 0 -80 0 -80 -80 0 -80 0 0 80 0 80 80
0 80 0 0 80 0 80 320 0 320 0 0 160 0 160 160 0 160 0 0 -80z m-800 -1280 l0
-80 -160 0 -160 0 0 80 0 80 160 0 160 0 0 -80z m1120 0 l0 -80 -320 0 -320 0
0 80 0 80 320 0 320 0 0 -80z"/>
</g>
</svg>
